<svg width="26" height="22" viewBox="0 0 26 22" fill="none" xmlns="http://www.w3.org/2000/svg">
<path d="M7.31492 8.60437C6.41621 8.60437 5.69013 9.22 5.69013 9.98201C5.69013 10.744 6.41621 11.3596 7.31492 11.3596C8.21363 11.3596 8.93971 10.744 8.93971 9.98201C8.93971 9.22 8.21363 8.60437 7.31492 8.60437ZM13.0017 8.60437C12.103 8.60437 11.3769 9.22 11.3769 9.98201C11.3769 10.744 12.103 11.3596 13.0017 11.3596C13.9004 11.3596 14.6265 10.744 14.6265 9.98201C14.6265 9.22 13.9004 8.60437 13.0017 8.60437ZM18.6884 8.60437C17.7897 8.60437 17.0637 9.22 17.0637 9.98201C17.0637 10.744 17.7897 11.3596 18.6884 11.3596C19.5872 11.3596 20.3132 10.744 20.3132 9.98201C20.3132 9.22 19.5872 8.60437 18.6884 8.60437ZM13.0017 1.02734C5.82215 1.02734 0.00336982 5.03542 0.00336982 9.98201C0.00336982 12.0312 1.01379 13.9083 2.68935 15.4194C1.93281 17.1156 0.358793 18.5535 0.333405 18.5707C-0.00170764 18.8721 -0.0931021 19.3112 0.0998417 19.6901C0.292785 20.0689 0.734525 20.3143 1.22196 20.3143C4.3446 20.3143 6.80718 19.2079 8.28472 18.321C9.75211 18.7128 11.3363 18.9367 13.0017 18.9367C20.1812 18.9367 26 14.9286 26 9.98201C26 5.03542 20.1812 1.02734 13.0017 1.02734ZM13.0017 16.8702C11.646 16.8702 10.3056 16.6937 9.02095 16.3493L7.86837 16.0393L6.87826 16.6334C6.15218 17.0682 5.157 17.5547 3.95872 17.8819C4.32937 17.361 4.68987 16.7755 4.96913 16.1513L5.50734 14.9415L4.46139 14.003C3.54236 13.1721 2.44055 11.7988 2.44055 9.98201C2.44055 6.18489 7.17783 3.0938 13.0017 3.0938C18.8255 3.0938 23.5628 6.18489 23.5628 9.98201C23.5628 13.7791 18.8255 16.8702 13.0017 16.8702Z" fill="#FFFBFB"/>
</svg>
