<svg width="17" height="14" viewBox="0 0 17 14" fill="none" xmlns="http://www.w3.org/2000/svg">
<path d="M13.5 4.50458C14.8807 4.50458 16 3.66846 16 2.63705C16 1.60565 14.8807 0.769531 13.5 0.769531C12.1193 0.769531 11 1.60565 11 2.63705C11 3.66846 12.1193 4.50458 13.5 4.50458Z" fill="white" stroke="white" stroke-linecap="round" stroke-linejoin="round"/>
<path d="M3.5 9.17352C4.88071 9.17352 6 8.3374 6 7.306C6 6.2746 4.88071 5.43848 3.5 5.43848C2.11929 5.43848 1 6.2746 1 7.306C1 8.3374 2.11929 9.17352 3.5 9.17352Z" fill="white" stroke="white" stroke-linecap="round" stroke-linejoin="round"/>
<path d="M13.5 12.9089C14.8807 12.9089 16 12.0728 16 11.0414C16 10.0099 14.8807 9.17383 13.5 9.17383C12.1193 9.17383 11 10.0099 11 11.0414C11 12.0728 12.1193 12.9089 13.5 12.9089Z" fill="white" stroke="white" stroke-linecap="round" stroke-linejoin="round"/>
<path d="M6 8.23926L11 11.0405" stroke="white" stroke-linecap="round" stroke-linejoin="round"/>
<path d="M11 3.57129L6 6.37257" stroke="white" stroke-linecap="round" stroke-linejoin="round"/>
</svg>
