<svg width="28" height="28" viewBox="0 0 37 36" fill="none" xmlns="http://www.w3.org/2000/svg">
<g filter="url(#filter0_d)">
<path d="M32.4731 10.034L19.6631 0.405449C19.3144 0.141291 18.9021 0 18.4801 0C18.058 0 17.6458 0.141291 17.2971 0.405449L4.47307 10.034L5.95707 12.445L7.27307 11.465V26.4445C7.27307 26.857 7.42057 27.2527 7.68312 27.5444C7.94567 27.8361 8.30177 28 8.67307 28H17.0731V20.2225H19.8731V28H28.2731C28.6444 28 29.0005 27.8361 29.263 27.5444C29.5256 27.2527 29.6731 26.857 29.6731 26.4445V11.465L30.9891 12.445L32.4731 10.034ZM26.8731 24.889H22.6731V18.667C22.6731 18.2545 22.5256 17.8588 22.263 17.5671C22.0005 17.2754 21.6444 17.1115 21.2731 17.1115H15.6731C15.3018 17.1115 14.9457 17.2754 14.6831 17.5671C14.4206 17.8588 14.2731 18.2545 14.2731 18.667V24.889H10.0731V9.16291L18.4731 2.94091L26.8731 9.16291V24.889Z" fill="#2E008E"/>
</g>
<defs>
<filter id="filter0_d" x="0.473068" y="0" width="36" height="36" filterUnits="userSpaceOnUse" color-interpolation-filters="sRGB">
<feFlood flood-opacity="0" result="BackgroundImageFix"/>
<feColorMatrix in="SourceAlpha" type="matrix" values="0 0 0 0 0 0 0 0 0 0 0 0 0 0 0 0 0 0 127 0" result="hardAlpha"/>
<feOffset dy="4"/>
<feGaussianBlur stdDeviation="2"/>
<feComposite in2="hardAlpha" operator="out"/>
<feColorMatrix type="matrix" values="0 0 0 0 0 0 0 0 0 0 0 0 0 0 0 0 0 0 0.25 0"/>
<feBlend mode="normal" in2="BackgroundImageFix" result="effect1_dropShadow"/>
<feBlend mode="normal" in="SourceGraphic" in2="effect1_dropShadow" result="shape"/>
</filter>
</defs>
</svg>
