<svg width="35" height="32" viewBox="0 0 35 32" fill="none" xmlns="http://www.w3.org/2000/svg">
<g filter="url(#filter0_d)">
<path d="M30.6983 8.60087L18.6005 0.347541C18.2712 0.121111 17.8819 0 17.4833 0C17.0847 0 16.6954 0.121111 16.3661 0.347541L4.25513 8.60087L5.65661 10.6675L6.89944 9.82754V22.6675C6.89944 23.0212 7.03874 23.3603 7.28669 23.6104C7.53464 23.8604 7.87094 24.0009 8.2216 24.0009H16.1545V17.3342H18.7989V24.0009H26.7318C27.0825 24.0009 27.4188 23.8604 27.6667 23.6104C27.9147 23.3603 28.054 23.0212 28.054 22.6675V9.82754L29.2968 10.6675L30.6983 8.60087ZM25.4096 21.3342H21.4432V16.0009C21.4432 15.6473 21.3039 15.3081 21.0559 15.0581C20.808 14.808 20.4717 14.6675 20.121 14.6675H14.8324C14.4817 14.6675 14.1454 14.808 13.8975 15.0581C13.6495 15.3081 13.5102 15.6473 13.5102 16.0009V21.3342H9.54376V7.85421L17.4767 2.52087L25.4096 7.85421V21.3342Z" fill="#3A3A3A"/>
</g>
<defs>
<filter id="filter0_d" x="0.255127" y="0" width="34.4431" height="32.0009" filterUnits="userSpaceOnUse" color-interpolation-filters="sRGB">
<feFlood flood-opacity="0" result="BackgroundImageFix"/>
<feColorMatrix in="SourceAlpha" type="matrix" values="0 0 0 0 0 0 0 0 0 0 0 0 0 0 0 0 0 0 127 0" result="hardAlpha"/>
<feOffset dy="4"/>
<feGaussianBlur stdDeviation="2"/>
<feComposite in2="hardAlpha" operator="out"/>
<feColorMatrix type="matrix" values="0 0 0 0 0 0 0 0 0 0 0 0 0 0 0 0 0 0 0.25 0"/>
<feBlend mode="normal" in2="BackgroundImageFix" result="effect1_dropShadow"/>
<feBlend mode="normal" in="SourceGraphic" in2="effect1_dropShadow" result="shape"/>
</filter>
</defs>
</svg>
