<svg width="27" height="24" viewBox="0 0 27 24" fill="none" xmlns="http://www.w3.org/2000/svg">
<path d="M26.6983 8.60087L14.6005 0.347541C14.2712 0.121111 13.8819 0 13.4833 0C13.0847 0 12.6954 0.121111 12.3661 0.347541L0.255127 8.60087L1.65661 10.6675L2.89944 9.82754V22.6675C2.89944 23.0212 3.03874 23.3603 3.28669 23.6104C3.53464 23.8604 3.87094 24.0009 4.2216 24.0009H12.1545V17.3342H14.7989V24.0009H22.7318C23.0825 24.0009 23.4188 23.8604 23.6667 23.6104C23.9147 23.3603 24.054 23.0212 24.054 22.6675V9.82754L25.2968 10.6675L26.6983 8.60087ZM21.4096 21.3342H17.4432V16.0009C17.4432 15.6473 17.3039 15.3081 17.0559 15.0581C16.808 14.808 16.4717 14.6675 16.121 14.6675H10.8324C10.4817 14.6675 10.1454 14.808 9.89748 15.0581C9.64952 15.3081 9.51023 15.6473 9.51023 16.0009V21.3342H5.54376V7.85421L13.4767 2.52087L21.4096 7.85421V21.3342Z" fill="#3A3A3A"/>
</svg>
