<svg width="28" height="28" viewBox="0 0 36 37" fill="none" xmlns="http://www.w3.org/2000/svg">
<g filter="url(#filter0_d)">
<path d="M13.528 21.1016V23.458V26.1698C13.528 26.4857 13.8062 26.749 14.1401 26.749H15.5171V27.4204C15.5171 27.7363 15.7953 27.9996 16.1291 27.9996H19.8986C20.2325 27.9996 20.5106 27.7363 20.5106 27.4204V26.749H21.8877C22.2215 26.749 22.4997 26.4857 22.4997 26.1698V23.458V21.1016C25.5598 19.5351 27.4515 16.56 27.4515 13.2426C27.4515 8.31927 23.223 4.31738 18.0208 4.31738C12.8187 4.31738 8.59013 8.31927 8.59013 13.2426C8.57622 16.56 10.454 19.5351 13.528 21.1016ZM14.7382 21.3254H21.2479V22.8788H14.7382V21.3254ZM21.2479 25.6037H19.8708C19.537 25.6037 19.2588 25.867 19.2588 26.183V26.8543H16.7272V26.1698C16.7272 25.8539 16.449 25.5906 16.1152 25.5906H14.7382V24.0372H21.2479V25.6037V25.6037ZM17.993 5.47582C22.5136 5.47582 26.1997 8.96431 26.1997 13.2426C26.1997 16.1914 24.4749 18.8374 21.7069 20.167H14.2792C11.4972 18.8374 9.78636 16.1914 9.78636 13.2426C9.78636 8.96431 13.4724 5.47582 17.993 5.47582Z" fill="#2E008E" shape-rendering="crispEdges"/>
<path d="M20.9979 25.3537H19.8708C19.4121 25.3537 19.0088 25.7162 19.0088 26.183V26.6043H16.9772V26.1698C16.9772 25.703 16.574 25.3406 16.1152 25.3406H14.9882V24.2872H20.9979V25.3537ZM8.34013 13.2421C8.32621 16.6094 10.2057 19.6287 13.278 21.2535V23.458V26.1698C13.278 26.6366 13.6813 26.999 14.1401 26.999H15.2671V27.4204C15.2671 27.8872 15.6704 28.2496 16.1291 28.2496H19.8986C20.3574 28.2496 20.7606 27.8872 20.7606 27.4204V26.999H21.8877C22.3464 26.999 22.7497 26.6366 22.7497 26.1698V23.458V21.2532C25.8084 19.6285 27.7015 16.6098 27.7015 13.2426C27.7015 8.1684 23.3479 4.06738 18.0208 4.06738C12.6939 4.06738 8.34043 8.16812 8.34013 13.2421ZM14.9882 21.5754H20.9979V22.6288H14.9882V21.5754ZM17.993 5.72582C22.3887 5.72582 25.9497 9.11518 25.9497 13.2426C25.9497 16.0716 24.3063 18.6187 21.6495 19.917H14.3363C11.6667 18.619 10.0364 16.0723 10.0364 13.2426C10.0364 9.11518 13.5973 5.72582 17.993 5.72582Z" stroke="#2E008E" stroke-opacity="0.8" stroke-width="0.5" shape-rendering="crispEdges"/>
</g>
<g filter="url(#filter1_d)">
<path d="M18.0069 2.567C18.3408 2.567 18.619 2.30372 18.619 1.98778V0.57922C18.619 0.263281 18.3408 0 18.0069 0C17.6731 0 17.3949 0.263281 17.3949 0.57922V1.98778C17.3949 2.30372 17.6592 2.567 18.0069 2.567Z" fill="#2E008E"/>
<path d="M9.16047 5.68664C9.28565 5.80512 9.43866 5.85777 9.59166 5.85777C9.74467 5.85777 9.89769 5.80512 10.0229 5.68664C10.2593 5.46285 10.2593 5.09426 10.0229 4.87047L8.96573 3.86999C8.72927 3.6462 8.33981 3.6462 8.10334 3.86999C7.86688 4.09378 7.86688 4.46237 8.10334 4.68616L9.16047 5.68664Z" fill="#2E008E"/>
<path d="M4.61202 13.8215H6.10034C6.43417 13.8215 6.71237 13.5582 6.71237 13.2423C6.71237 12.9264 6.43417 12.6631 6.10034 12.6631H4.61202C4.2782 12.6631 4 12.9264 4 13.2423C4 13.5582 4.2782 13.8215 4.61202 13.8215Z" fill="#2E008E"/>
<path d="M26.4083 5.85777C26.5614 5.85777 26.7144 5.80512 26.8395 5.68664L27.8967 4.68616C28.1332 4.46237 28.1332 4.09378 27.8967 3.86999C27.6602 3.6462 27.2707 3.6462 27.0343 3.86999L25.9772 4.87047C25.7407 5.09426 25.7407 5.46285 25.9772 5.68664C26.1023 5.80512 26.2553 5.85777 26.4083 5.85777Z" fill="#2E008E"/>
<path d="M29.8996 13.8215H31.388C31.7218 13.8215 32 13.5582 32 13.2423C32 12.9264 31.7218 12.6631 31.388 12.6631H29.8996C29.5658 12.6631 29.2876 12.9264 29.2876 13.2423C29.2876 13.5582 29.5658 13.8215 29.8996 13.8215Z" fill="#2E008E"/>
</g>
<defs>
<filter id="filter0_d" x="4.09006" y="3.81738" width="27.8615" height="32.6822" filterUnits="userSpaceOnUse" color-interpolation-filters="sRGB">
<feFlood flood-opacity="0" result="BackgroundImageFix"/>
<feColorMatrix in="SourceAlpha" type="matrix" values="0 0 0 0 0 0 0 0 0 0 0 0 0 0 0 0 0 0 127 0" result="hardAlpha"/>
<feOffset dy="4"/>
<feGaussianBlur stdDeviation="2"/>
<feComposite in2="hardAlpha" operator="out"/>
<feColorMatrix type="matrix" values="0 0 0 0 0 0 0 0 0 0 0 0 0 0 0 0 0 0 0.25 0"/>
<feBlend mode="normal" in2="BackgroundImageFix" result="effect1_dropShadow"/>
<feBlend mode="normal" in="SourceGraphic" in2="effect1_dropShadow" result="shape"/>
</filter>
<filter id="filter1_d" x="0" y="0" width="36" height="21.8215" filterUnits="userSpaceOnUse" color-interpolation-filters="sRGB">
<feFlood flood-opacity="0" result="BackgroundImageFix"/>
<feColorMatrix in="SourceAlpha" type="matrix" values="0 0 0 0 0 0 0 0 0 0 0 0 0 0 0 0 0 0 127 0" result="hardAlpha"/>
<feOffset dy="4"/>
<feGaussianBlur stdDeviation="2"/>
<feColorMatrix type="matrix" values="0 0 0 0 0 0 0 0 0 0 0 0 0 0 0 0 0 0 0.25 0"/>
<feBlend mode="normal" in2="BackgroundImageFix" result="effect1_dropShadow"/>
<feBlend mode="normal" in="SourceGraphic" in2="effect1_dropShadow" result="shape"/>
</filter>
</defs>
</svg>
