<svg width="34" height="35" viewBox="0 0 37 39" fill="none" xmlns="http://www.w3.org/2000/svg">
<g filter="url(#filter0_d)">
<path d="M13.8451 23.329V25.934V28.932C13.8451 29.2813 14.1325 29.5724 14.4775 29.5724H15.9003V30.3146C15.9003 30.6639 16.1878 30.955 16.5327 30.955H20.4277C20.7726 30.955 21.06 30.6639 21.06 30.3146V29.5724H22.4829C22.8278 29.5724 23.1153 29.2813 23.1153 28.932V25.934V23.329C26.2772 21.5971 28.2319 18.3081 28.2319 14.6406C28.2319 9.19766 23.8627 4.77344 18.4874 4.77344C13.1121 4.77344 8.74288 9.19766 8.74288 14.6406C8.7285 18.3081 10.6688 21.5971 13.8451 23.329ZM15.0955 23.5764H21.8218V25.2937H15.0955V23.5764ZM21.8218 28.3062H20.3989C20.054 28.3062 19.7665 28.5973 19.7665 28.9466V29.6888H17.1507V28.932C17.1507 28.5828 16.8633 28.2917 16.5184 28.2917H15.0955V26.5744H21.8218V28.3062ZM18.4586 6.05413C23.1297 6.05413 26.9384 9.91078 26.9384 14.6406C26.9384 17.9006 25.1562 20.8258 22.2961 22.2957H14.6212C11.7467 20.8258 9.9789 17.9006 9.9789 14.6406C9.9789 9.91078 13.7876 6.05413 18.4586 6.05413Z" fill="#111F4D"/>
<path d="M18.4731 2.83791C18.818 2.83791 19.1055 2.54684 19.1055 2.19756V0.640347C19.1055 0.291066 18.818 0 18.4731 0C18.1281 0 17.8407 0.291066 17.8407 0.640347V2.19756C17.8407 2.54684 18.1138 2.83791 18.4731 2.83791Z" fill="#111F4D"/>
<path d="M9.33219 6.28669C9.46154 6.41768 9.61963 6.47589 9.77773 6.47589C9.93583 6.47589 10.0939 6.41768 10.2233 6.28669C10.4676 6.03929 10.4676 5.6318 10.2233 5.38439L9.13097 4.27833C8.88664 4.03092 8.48422 4.03092 8.23989 4.27833C7.99556 4.52574 7.99556 4.93323 8.23989 5.18064L9.33219 6.28669Z" fill="#111F4D"/>
<path d="M4.63239 15.2807H6.17023C6.51517 15.2807 6.80262 14.9896 6.80262 14.6403C6.80262 14.2911 6.51517 14 6.17023 14H4.63239C4.28745 14 4 14.2911 4 14.6403C4 14.9896 4.28745 15.2807 4.63239 15.2807Z" fill="#111F4D"/>
<path d="M27.1539 6.47589C27.312 6.47589 27.4701 6.41768 27.5995 6.28669L28.6918 5.18064C28.9361 4.93323 28.9361 4.52574 28.6918 4.27833C28.4475 4.03092 28.045 4.03092 27.8007 4.27833L26.7084 5.38439C26.4641 5.6318 26.4641 6.03929 26.7084 6.28669C26.8377 6.41768 26.9958 6.47589 27.1539 6.47589Z" fill="#111F4D"/>
<path d="M30.7614 15.2807H32.2993C32.6442 15.2807 32.9316 14.9896 32.9316 14.6403C32.9316 14.2911 32.6442 14 32.2993 14H30.7614C30.4165 14 30.129 14.2911 30.129 14.6403C30.129 14.9896 30.4165 15.2807 30.7614 15.2807Z" fill="#111F4D"/>
</g>
<defs>
<filter id="filter0_d" x="0" y="0" width="36.9317" height="38.955" filterUnits="userSpaceOnUse" color-interpolation-filters="sRGB">
<feFlood flood-opacity="0" result="BackgroundImageFix"/>
<feColorMatrix in="SourceAlpha" type="matrix" values="0 0 0 0 0 0 0 0 0 0 0 0 0 0 0 0 0 0 127 0" result="hardAlpha"/>
<feOffset dy="4"/>
<feGaussianBlur stdDeviation="2"/>
<feColorMatrix type="matrix" values="0 0 0 0 0 0 0 0 0 0 0 0 0 0 0 0 0 0 0.25 0"/>
<feBlend mode="normal" in2="BackgroundImageFix" result="effect1_dropShadow"/>
<feBlend mode="normal" in="SourceGraphic" in2="effect1_dropShadow" result="shape"/>
</filter>
</defs>
</svg>
