<svg width="28" height="28" viewBox="0 0 36 36" fill="none" xmlns="http://www.w3.org/2000/svg">
<path d="M23.5431 12.6299H18.7931V7.87988C18.7931 7.74238 18.6806 7.62988 18.5431 7.62988H17.0431C16.9056 7.62988 16.7931 7.74238 16.7931 7.87988V12.6299H12.0431C11.9056 12.6299 11.7931 12.7424 11.7931 12.8799V14.3799C11.7931 14.5174 11.9056 14.6299 12.0431 14.6299H16.7931V19.3799C16.7931 19.5174 16.9056 19.6299 17.0431 19.6299H18.5431C18.6806 19.6299 18.7931 19.5174 18.7931 19.3799V14.6299H23.5431C23.6806 14.6299 23.7931 14.5174 23.7931 14.3799V12.8799C23.7931 12.7424 23.6806 12.6299 23.5431 12.6299Z" fill="#2E008E"/>
<g filter="url(#filter0_d)">
<path d="M18 0C10.2688 0 4 6.26875 4 14C4 21.7312 10.2688 28 18 28C25.7312 28 32 21.7312 32 14C32 6.26875 25.7312 0 18 0ZM18 25.625C11.5813 25.625 6.375 20.4187 6.375 14C6.375 7.58125 11.5813 2.375 18 2.375C24.4187 2.375 29.625 7.58125 29.625 14C29.625 20.4187 24.4187 25.625 18 25.625Z" fill="#2E008E"/>
</g>
<defs>
<filter id="filter0_d" x="0" y="0" width="36" height="36" filterUnits="userSpaceOnUse" color-interpolation-filters="sRGB">
<feFlood flood-opacity="0" result="BackgroundImageFix"/>
<feColorMatrix in="SourceAlpha" type="matrix" values="0 0 0 0 0 0 0 0 0 0 0 0 0 0 0 0 0 0 127 0" result="hardAlpha"/>
<feOffset dy="4"/>
<feGaussianBlur stdDeviation="2"/>
<feComposite in2="hardAlpha" operator="out"/>
<feColorMatrix type="matrix" values="0 0 0 0 0 0 0 0 0 0 0 0 0 0 0 0 0 0 0.25 0"/>
<feBlend mode="normal" in2="BackgroundImageFix" result="effect1_dropShadow"/>
<feBlend mode="normal" in="SourceGraphic" in2="effect1_dropShadow" result="shape"/>
</filter>
</defs>
</svg>
