<svg width="28" height="28" viewBox="0 0 37 36" fill="none" xmlns="http://www.w3.org/2000/svg">
<g filter="url(#filter0_d)">
<path d="M32.3627 23.5294L29.3455 16.8971C29.3455 16.8971 28.7079 12.3971 28.1013 7.9853C27.7888 5.77605 26.6392 3.74904 24.8659 2.28052C23.0926 0.811992 20.8161 0.0016868 18.4588 1.82366e-06V1.82366e-06C16.0966 -0.00140342 13.8144 0.80936 12.0375 2.2812C10.2606 3.75305 9.11021 5.78557 8.80078 8L7.57214 16.8971L4.55497 23.5294C4.49461 23.6592 4.46286 23.7994 4.46165 23.9412C4.45959 24.0872 4.48824 24.2323 4.54594 24.3678C4.60363 24.5033 4.68922 24.6266 4.79774 24.7306C4.90626 24.8346 5.03555 24.9171 5.17809 24.9735C5.32063 25.0298 5.47359 25.0588 5.62808 25.0588H15.3484C15.3484 25.8389 15.6761 26.587 16.2594 27.1385C16.8427 27.6901 17.6339 28 18.4588 28C19.2838 28 20.075 27.6901 20.6583 27.1385C21.2416 26.587 21.5693 25.8389 21.5693 25.0588H31.3207C31.5115 25.0573 31.6989 25.0108 31.8661 24.9238C32.0332 24.8367 32.1748 24.7117 32.2782 24.56C32.3815 24.4083 32.4433 24.2347 32.4581 24.0548C32.4729 23.8749 32.4401 23.6944 32.3627 23.5294V23.5294ZM18.4588 2.57353C20.113 2.57407 21.7106 3.14241 22.9549 4.17294C24.1993 5.20347 25.0056 6.6261 25.2241 8.17647C25.6596 11.2647 26.0951 14.5735 26.3128 16.1765H10.6826L11.6935 8.17647C11.9121 6.6261 12.7184 5.20347 13.9627 4.17294C15.2071 3.14241 16.8047 2.57407 18.4588 2.57353V2.57353ZM8.38086 22.0588L10.4027 17.6471H26.515L28.5368 22.0588H8.31865H8.38086Z" fill="#2E008E"/>
</g>
<defs>
<filter id="filter0_d" x="0.461548" y="0" width="36" height="36" filterUnits="userSpaceOnUse" color-interpolation-filters="sRGB">
<feFlood flood-opacity="0" result="BackgroundImageFix"/>
<feColorMatrix in="SourceAlpha" type="matrix" values="0 0 0 0 0 0 0 0 0 0 0 0 0 0 0 0 0 0 127 0" result="hardAlpha"/>
<feOffset dy="4"/>
<feGaussianBlur stdDeviation="2"/>
<feColorMatrix type="matrix" values="0 0 0 0 0 0 0 0 0 0 0 0 0 0 0 0 0 0 0.25 0"/>
<feBlend mode="normal" in2="BackgroundImageFix" result="effect1_dropShadow"/>
<feBlend mode="normal" in="SourceGraphic" in2="effect1_dropShadow" result="shape"/>
</filter>
</defs>
</svg>
