<svg width="30" height="31" viewBox="0 0 30 31" fill="none" xmlns="http://www.w3.org/2000/svg">
<g filter="url(#filter0_d)">
<path d="M25.9061 19.3277L23.5871 13.8797C23.5871 13.8797 23.0971 10.1833 22.6309 6.55935C22.3907 4.74461 21.5071 3.07957 20.1441 1.87328C18.7812 0.666993 17.0315 0.00138559 15.2197 1.49801e-06C13.4041 -0.00115281 11.65 0.664831 10.2843 1.87385C8.91861 3.08286 8.03447 4.75243 7.79664 6.57143L6.85232 13.8797L4.53335 19.3277C4.48696 19.4344 4.46255 19.5495 4.46163 19.666C4.46004 19.786 4.48206 19.9051 4.52641 20.0164C4.57075 20.1277 4.63654 20.229 4.71995 20.3144C4.80335 20.3998 4.90272 20.4676 5.01227 20.5139C5.12183 20.5602 5.23939 20.584 5.35814 20.584H12.829C12.829 21.2248 13.0809 21.8393 13.5293 22.2924C13.9776 22.7455 14.5857 23 15.2197 23C15.8538 23 16.4619 22.7455 16.9102 22.2924C17.3585 21.8393 17.6104 21.2248 17.6104 20.584H25.1052C25.2519 20.5827 25.3959 20.5446 25.5244 20.4731C25.6529 20.4016 25.7617 20.2989 25.8411 20.1743C25.9206 20.0497 25.9681 19.9071 25.9794 19.7593C25.9908 19.6115 25.9656 19.4632 25.9061 19.3277ZM15.2197 2.11397C16.4911 2.11442 17.719 2.58127 18.6754 3.42777C19.6318 4.27428 20.2515 5.44287 20.4195 6.71639C20.7542 9.25315 21.0889 11.9711 21.2562 13.2878H9.24301L10.02 6.71639C10.1879 5.44287 10.8077 4.27428 11.7641 3.42777C12.7204 2.58127 13.9484 2.11442 15.2197 2.11397ZM7.4739 18.1197L9.02785 14.4958H21.4116L22.9656 18.1197H7.42608H7.4739Z" fill="#3A3A3A"/>
</g>
<defs>
<filter id="filter0_d" x="0.461548" y="0" width="29.5205" height="31" filterUnits="userSpaceOnUse" color-interpolation-filters="sRGB">
<feFlood flood-opacity="0" result="BackgroundImageFix"/>
<feColorMatrix in="SourceAlpha" type="matrix" values="0 0 0 0 0 0 0 0 0 0 0 0 0 0 0 0 0 0 127 0" result="hardAlpha"/>
<feOffset dy="4"/>
<feGaussianBlur stdDeviation="2"/>
<feColorMatrix type="matrix" values="0 0 0 0 0 0 0 0 0 0 0 0 0 0 0 0 0 0 0.25 0"/>
<feBlend mode="normal" in2="BackgroundImageFix" result="effect1_dropShadow"/>
<feBlend mode="normal" in="SourceGraphic" in2="effect1_dropShadow" result="shape"/>
</filter>
</defs>
</svg>
