<svg width="16" height="14" viewBox="0 0 16 14" fill="none" xmlns="http://www.w3.org/2000/svg">
<path fill-rule="evenodd" clip-rule="evenodd" d="M13.303 10.4966L15.7191 12.6798L14.258 14L11.8265 11.8028C8.76647 13.8246 4.49774 13.3666 2.04675 10.7536C-0.404245 8.14057 -0.204602 4.26044 2.50413 1.86418C5.21286 -0.53209 9.51021 -0.630192 12.3494 1.63942C15.1886 3.90904 15.6048 7.77511 13.303 10.4966ZM7.54666 1.87109C4.69543 1.87109 2.38406 3.95965 2.38406 6.53602C2.38406 9.11239 4.69543 11.201 7.54666 11.201C10.3979 11.201 12.7093 9.11239 12.7093 6.53602C12.7093 3.95965 10.3979 1.87109 7.54666 1.87109Z" fill="#606470"/>
</svg>
