<svg width="28" height="28" viewBox="0 0 38 38" fill="none" xmlns="http://www.w3.org/2000/svg">
<g filter="url(#filter0_d)">
<path d="M19.0001 22.6005L25.8452 26.3844L24.5379 18.3699L30.0758 12.6941L22.4227 11.5249L19.0001 4.23305L15.5775 11.5249L7.92423 12.6941L13.4622 18.3699L12.1549 26.3844L19.0001 22.6005ZM27.6525 29L19.0001 24.217L10.3475 29L12.0001 18.8694L5 11.6951L14.6739 10.2169L19.0001 0.999999L23.3263 10.2169L33 11.6951L26 18.8694L27.6525 29Z" fill="#2E008E"/>
<path d="M19.0001 22.6005L25.8452 26.3844L24.5379 18.3699L30.0758 12.6941L22.4227 11.5249L19.0001 4.23305L15.5775 11.5249L7.92423 12.6941L13.4622 18.3699L12.1549 26.3844L19.0001 22.6005ZM27.6525 29L19.0001 24.217L10.3475 29L12.0001 18.8694L5 11.6951L14.6739 10.2169L19.0001 0.999999L23.3263 10.2169L33 11.6951L26 18.8694L27.6525 29Z" stroke="#2E008E" stroke-width="0.5"/>
</g>
<defs>
<filter id="filter0_d" x="0.481262" y="0.412109" width="37.0374" height="37.0562" filterUnits="userSpaceOnUse" color-interpolation-filters="sRGB">
<feFlood flood-opacity="0" result="BackgroundImageFix"/>
<feColorMatrix in="SourceAlpha" type="matrix" values="0 0 0 0 0 0 0 0 0 0 0 0 0 0 0 0 0 0 127 0" result="hardAlpha"/>
<feOffset dy="4"/>
<feGaussianBlur stdDeviation="2"/>
<feColorMatrix type="matrix" values="0 0 0 0 0 0 0 0 0 0 0 0 0 0 0 0 0 0 0.25 0"/>
<feBlend mode="normal" in2="BackgroundImageFix" result="effect1_dropShadow"/>
<feBlend mode="normal" in="SourceGraphic" in2="effect1_dropShadow" result="shape"/>
</filter>
</defs>
</svg>
