<svg width="546" height="629" viewBox="0 0 546 629" fill="none" xmlns="http://www.w3.org/2000/svg">
<path fill-rule="evenodd" clip-rule="evenodd" d="M0 274.107V269.581C0 120.697 121.208 0 270.728 0H275.272C424.79 0 546 120.697 546 269.581V274.107C546 422.993 424.79 543.688 275.272 543.688H270.728C121.208 543.688 0 422.993 0 274.107Z" fill="#E4EBF7"/>
<path fill-rule="evenodd" clip-rule="evenodd" d="M86.1339 282.486C85.8976 284.821 85.2017 287.087 84.0859 289.155C82.9702 291.222 81.4564 293.05 79.6311 294.535C77.8058 296.02 75.7047 297.132 73.4477 297.808C71.1908 298.484 68.8221 298.711 66.4771 298.476C64.1321 298.241 61.8565 297.548 59.7805 296.437C57.7044 295.326 55.8684 293.818 54.3773 292.001C52.8862 290.183 51.7692 288.091 51.0902 285.844C50.4111 283.596 50.1832 281.238 50.4196 278.902C50.9011 274.19 53.2416 269.861 56.9269 266.866C60.6122 263.871 65.3408 262.456 70.0735 262.931C74.8063 263.406 79.1561 265.732 82.1672 269.399C85.1782 273.066 86.6042 277.773 86.1317 282.486" fill="white"/>
<path d="M104.821 316.323L77.3926 339.618M80.1044 289.955L102.835 302.787L80.1044 289.955Z" stroke="white" stroke-width="2"/>
<path fill-rule="evenodd" clip-rule="evenodd" d="M86.3939 344.06C86.2448 345.669 85.7772 347.233 85.018 348.661C84.2588 350.089 83.2231 351.353 81.9707 352.381C80.7182 353.408 79.2738 354.179 77.7208 354.647C76.1678 355.116 74.537 355.274 72.9224 355.112C71.3078 354.95 69.7414 354.471 68.3137 353.703C66.886 352.935 65.6251 351.893 64.6039 350.637C63.5827 349.381 62.8214 347.936 62.3638 346.386C61.9063 344.835 61.7616 343.21 61.9382 341.604C62.2908 338.395 63.9021 335.455 66.4213 333.424C68.9405 331.393 72.1636 330.435 75.3887 330.759C78.6139 331.083 81.58 332.662 83.6411 335.153C85.7023 337.644 86.6917 340.846 86.3939 344.06ZM124.805 309.279C124.649 310.896 124.174 312.465 123.407 313.898C122.641 315.331 121.597 316.598 120.337 317.628C119.077 318.658 117.624 319.431 116.064 319.9C114.503 320.37 112.865 320.528 111.242 320.365C109.62 320.202 108.046 319.722 106.611 318.952C105.176 318.182 103.907 317.137 102.879 315.877C101.85 314.618 101.082 313.168 100.617 311.612C100.153 310.055 100.002 308.423 100.173 306.809C100.508 303.561 102.124 300.578 104.665 298.516C107.206 296.453 110.466 295.478 113.728 295.806C116.99 296.133 119.989 297.736 122.065 300.262C124.142 302.789 125.127 306.033 124.805 309.282V309.279ZM214.652 57.9806L279.321 57.9527C280.628 57.9521 281.922 57.6953 283.128 57.1969C284.335 56.6985 285.432 55.9683 286.355 55.048C287.279 54.1276 288.011 53.0352 288.511 51.833C289.01 50.6309 289.267 49.3425 289.266 48.0415C289.266 46.7405 289.008 45.4524 288.507 44.2506C288.007 43.0489 287.273 41.9571 286.349 41.0375C285.425 40.118 284.328 39.3887 283.121 38.8914C281.913 38.394 280.619 38.1384 279.313 38.1389L214.643 38.1668C212.04 38.2218 209.563 39.2904 207.742 41.1432C205.921 42.996 204.902 45.4855 204.903 48.0779C204.905 50.6702 205.926 53.1589 207.748 55.0101C209.571 56.8614 212.049 57.9278 214.652 57.9806ZM239.388 97.5781L304.055 97.5502C305.379 97.577 306.695 97.3405 307.926 96.8544C309.157 96.3683 310.278 95.6425 311.224 94.7194C312.169 93.7964 312.921 92.6946 313.433 91.4788C313.946 90.263 314.21 88.9575 314.209 87.6389C314.208 86.3203 313.943 85.015 313.43 83.7997C312.916 82.5843 312.164 81.4832 311.218 80.561C310.271 79.6387 309.149 78.9138 307.918 78.4288C306.687 77.9438 305.37 77.7084 304.046 77.7364L239.377 77.7643C236.738 77.7654 234.208 78.8103 232.343 80.669C230.478 82.5277 229.431 85.048 229.432 87.6755C229.433 90.3029 230.483 92.8223 232.349 94.6794C234.216 96.5365 236.747 97.5792 239.385 97.5781" fill="white"/>
<path fill-rule="evenodd" clip-rule="evenodd" d="M244.535 57.9527V57.9484L278.761 57.9333C276.123 57.9348 273.593 58.9799 271.728 60.8388C269.863 62.6977 268.816 65.2181 268.818 67.8456C268.819 70.4731 269.869 72.9923 271.736 74.8492C273.602 76.7061 276.133 77.7485 278.772 77.7471L244.542 77.7621V77.7578C247.143 77.7028 249.62 76.6347 251.44 74.7827C253.26 72.9307 254.279 70.4423 254.277 67.851C254.276 65.2598 253.255 62.7722 251.434 60.9218C249.612 59.0714 247.135 58.0054 244.533 57.9527H244.535ZM323.449 149.472H314.878C312.154 149.463 309.543 148.381 307.616 146.463C305.689 144.544 304.604 141.944 304.596 139.23C304.604 136.517 305.689 133.917 307.616 131.999C309.543 130.08 312.154 128.999 314.878 128.991H323.449C326.174 128.999 328.785 130.08 330.712 131.999C332.639 133.917 333.725 136.517 333.734 139.23C333.726 141.944 332.64 144.544 330.713 146.463C328.786 148.382 326.174 149.464 323.449 149.472Z" fill="white"/>
<path fill-rule="evenodd" clip-rule="evenodd" d="M369.802 63.9863C369.802 28.8286 398.425 0.328369 433.733 0.328369C469.04 0.328369 497.661 28.8286 497.661 63.9863C497.661 99.1462 469.04 127.646 433.733 127.646C398.425 127.646 369.804 99.1462 369.804 63.9885" fill="#FF603B"/>
<path fill-rule="evenodd" clip-rule="evenodd" d="M438.447 40.8243L436.991 73.0716C436.961 73.9118 436.604 74.7074 435.996 75.291C435.388 75.8747 434.577 76.2008 433.732 76.2008C432.888 76.2008 432.077 75.8747 431.469 75.291C430.861 74.7074 430.504 73.9118 430.473 73.0716L429.02 40.8243C428.996 40.1933 429.101 39.564 429.327 38.9741C429.553 38.3843 429.897 37.8459 430.337 37.3912C430.777 36.9365 431.304 36.5748 431.888 36.3277C432.472 36.0807 433.099 35.9534 433.733 35.9534C434.368 35.9534 434.995 36.0807 435.579 36.3277C436.162 36.5748 436.69 36.9365 437.13 37.3912C437.57 37.8459 437.914 38.3843 438.14 38.9741C438.366 39.564 438.471 40.1933 438.447 40.8243ZM437.879 82.3865C438.984 83.4095 439.537 84.7458 439.537 86.3973C439.537 88.0488 438.984 89.385 437.879 90.4874C436.694 91.5083 435.272 92.0596 433.694 92.0596C432.945 92.073 432.201 91.9333 431.508 91.6493C430.815 91.3652 430.188 90.9428 429.666 90.4081C428.481 89.3056 427.93 87.9715 427.93 86.3973C427.93 84.7458 428.481 83.4095 429.666 82.3865C430.771 81.2862 432.115 80.8143 433.694 80.8143C435.352 80.8143 436.774 81.2862 437.879 82.3865Z" fill="white"/>
<path fill-rule="evenodd" clip-rule="evenodd" d="M256.964 284.99C266.498 283.707 264.744 282.407 265.75 274.742C267.204 263.632 259.056 238.419 247.955 220.868C245.611 197.876 220.819 196.761 220.819 196.761C220.819 196.761 230.107 207.26 229.857 231.505C232.868 242.75 231.589 262.497 231.589 262.497C231.589 262.497 242.908 286.881 256.962 284.99" fill="#FFB594"/>
<path fill-rule="evenodd" clip-rule="evenodd" d="M217.427 195.626C217.427 195.626 220.578 194.376 224.343 196.875C241.747 199.873 246.675 211.258 248.682 221.257C252.697 224.006 252.697 226.254 252.697 228.755C253.484 230.422 255.961 235.254 255.961 235.254C255.961 235.254 240.398 239.003 232.366 249.749C229.353 236 217.427 195.624 217.427 195.624" fill="white"/>
<path fill-rule="evenodd" clip-rule="evenodd" d="M202.487 193.245L204.682 180.773L184.801 155.306L173.529 167.276L167.944 188.43C167.944 188.43 186.016 199.429 202.487 193.247" fill="#FFB594"/>
<path fill-rule="evenodd" clip-rule="evenodd" d="M178.627 166.899C178.627 166.899 168.811 160.747 173.36 152.117C176.876 145.453 183.133 154.56 183.133 154.56C183.133 154.56 184.262 146.705 189.894 146.705C191.021 144.462 193.274 137.731 193.274 137.731C193.274 137.731 218.059 143.34 222.567 144.462C222.565 155.679 217.576 186.348 205.585 187.292C186.329 188.806 178.627 166.899 178.627 166.899Z" fill="#FFC6A0"/>
<path fill-rule="evenodd" clip-rule="evenodd" d="M221.793 154.087C227.427 149.598 229.308 133.122 229.308 133.122C229.308 133.122 223.94 132.067 214.928 128.699C204.787 124.212 187.213 118.466 177.073 130.805C156.524 140.264 172.631 173.552 172.631 173.552L178.509 167.038C178.509 167.038 169.988 159.951 174.003 153.575C178.705 146.111 182.496 155.891 182.496 155.891C182.496 155.891 183.875 150.744 190.25 148.685C191.017 147.153 192.49 142.915 193.352 140.38C193.537 139.833 193.919 139.375 194.425 139.095C194.931 138.814 195.524 138.732 196.088 138.864C201.278 140.065 214.876 143.217 220.679 144.603C221.808 144.873 222.566 145.931 222.456 147.082L221.793 154.087Z" fill="#520038"/>
<path fill-rule="evenodd" clip-rule="evenodd" d="M218.02 163.248C217.796 164.563 216.76 165.487 215.703 165.307C214.647 165.131 213.969 163.921 214.191 162.605C214.415 161.29 215.451 160.365 216.508 160.543C217.566 160.721 218.242 161.931 218.02 163.246V163.248ZM203.029 160.159C202.805 161.474 201.769 162.399 200.711 162.218C199.656 162.043 198.977 160.833 199.199 159.516C199.423 158.201 200.459 157.277 201.517 157.457C202.574 157.633 203.251 158.843 203.029 160.159Z" fill="#552950"/>
<path d="M213.684 157.092L211.745 160.567L211.099 169.961H206.274" stroke="#DB836E" stroke-width="1.063" stroke-linecap="round" stroke-linejoin="round"/>
<path d="M215.233 156.32C215.233 156.32 219.11 154.776 220.661 157.478" stroke="#5C2552" stroke-width="1.117" stroke-linecap="round" stroke-linejoin="round"/>
<path d="M175.26 155.892C175.26 155.892 176.294 153.489 177.672 154.347C179.051 155.205 180.429 157.436 178.878 158.637C177.328 159.838 179.223 162.24 179.223 162.24" stroke="#DB836E" stroke-width="1.117" stroke-linecap="round" stroke-linejoin="round"/>
<path d="M198.864 152.975C198.864 152.975 202.827 155.377 207.825 155.034" stroke="#5C2552" stroke-width="1.117" stroke-linecap="round" stroke-linejoin="round"/>
<path d="M180.256 170.819C180.256 170.819 184.103 184.861 200.206 187.879M199.725 172.02C199.725 172.02 204.55 174.594 209.203 174.594L199.725 172.02ZM201.793 177.511C201.793 177.511 203.861 178.369 205.067 178.197L201.793 177.511Z" stroke="#DB836E" stroke-width="1.063" stroke-linecap="round" stroke-linejoin="round"/>
<path d="M205.804 195.74C205.804 195.74 203.503 201.79 187.931 200.254C172.358 198.717 165.767 189.436 165.767 189.436" stroke="#E4EBF7" stroke-width="1.136" stroke-linecap="round" stroke-linejoin="round"/>
<path fill-rule="evenodd" clip-rule="evenodd" d="M168.278 186.763C168.278 186.763 182.334 197.427 203.753 192.095C203.753 192.095 224.381 194.283 228.601 203.51C240.146 228.754 229.77 282.514 228.601 289.221C236.131 297.918 227.597 307.415 227.597 307.415C193.944 299.805 150.465 306.128 150.465 306.128C140.02 298.523 147.831 286.731 147.831 286.731L134.362 235.755C129.01 203.096 136.156 193.281 142.006 191.265C148.533 189.015 159.324 188.516 159.324 188.516C160.392 188.391 161.65 188.353 162.275 188.016C167.358 185.266 168.278 186.765 168.278 186.765" fill="white"/>
<path fill-rule="evenodd" clip-rule="evenodd" d="M141.789 191.765C141.789 191.765 126.981 192.762 125.441 209.258C124.437 228.255 131.967 232.752 131.967 232.752C131.967 232.752 145.052 280.157 168.145 281.991C186.216 277.324 178.393 267.616 178.184 257.497C177.682 233.252 162.874 221.256 162.874 221.256C162.874 221.256 153.802 191.765 141.789 191.765Z" fill="#FFC6A0"/>
<path fill-rule="evenodd" clip-rule="evenodd" d="M154.472 265.579C154.472 265.579 156.313 289.738 175.641 279.49C185.904 274.051 191.969 249.832 196.725 231.086C199.861 218.715 202.282 204.926 202.282 204.926L191.571 201.26C191.571 201.26 186.384 213.091 174.837 227.588C165.5 239.313 155.142 251.417 154.472 265.579Z" fill="#FFC6A0"/>
<path d="M233.621 224.755C233.621 224.755 237.384 230.597 228.601 290.247C233.718 295 230.869 303.141 228.099 306.354" stroke="#E4EBF7" stroke-width="1.085" stroke-linecap="round" stroke-linejoin="round"/>
<path fill-rule="evenodd" clip-rule="evenodd" d="M265.498 281.241C265.498 281.241 264.578 287.1 240.146 285.49C207.434 283.332 185.596 278.519 185.596 278.519L187.605 266.079C187.605 266.079 189.163 266.54 208.52 265.933C234.124 265.133 248.829 252.914 262.291 263.741C270.99 270.74 265.498 281.243 265.498 281.243" fill="#FFC6A0"/>
<path fill-rule="evenodd" clip-rule="evenodd" d="M151.293 194.262C151.293 194.262 139.246 184.098 127.483 200.01C120.336 215.502 128.597 232.791 133.221 242.001C132.553 249.999 138.24 251.248 138.24 251.248C138.24 251.248 138.472 253.167 141.505 256.996C150.289 241.918 155.98 237.336 171.038 230.087C170.331 228.68 166.995 223.084 167.107 222.007C167.484 218.383 164.345 216.381 164.345 216.381C164.345 216.381 163.729 216.047 161.836 210.509C160.139 205.548 157.451 199.405 151.293 194.262Z" fill="white"/>
<path fill-rule="evenodd" clip-rule="evenodd" d="M194.353 616.903C194.353 616.903 204.81 621.853 212.259 619.38C219.125 617.1 223.287 621 229.494 622.235C235.7 623.473 246.228 624.901 257.941 619.181C257.689 605.823 241.171 609.531 228.825 602.906C222.589 599.56 219.614 591.461 220.067 581.578H197.179C197.179 581.578 193.791 607.08 194.353 616.903Z" fill="#CBD1D1"/>
<path fill-rule="evenodd" clip-rule="evenodd" d="M194.3 616.487C194.3 616.487 200.212 619.569 210.754 618.07C218.198 617.01 217.696 619.485 226.732 620.819C235.767 622.151 254.931 620.403 257.606 618.404C258.61 621.068 256.77 623.402 256.77 623.402C256.77 623.402 253.089 624.864 245.057 625.401C240.114 625.731 227.615 625.993 223.216 624.069C218.865 620.736 212.675 620.819 210.164 623.567C200.628 625.872 194.69 622.902 194.69 622.902L194.3 616.487Z" fill="#2B0849"/>
<path fill-rule="evenodd" clip-rule="evenodd" d="M212.01 583.08H219.54C219.54 583.08 219.288 599.324 230.583 603.822C219.288 605.323 209.75 598.241 212.01 583.08Z" fill="#A4AABA"/>
<path fill-rule="evenodd" clip-rule="evenodd" d="M95.6884 582.627C95.6884 582.627 90.9325 599.301 85.5606 610.293C81.5026 618.602 76.023 627.138 97.9005 627.138C112.913 627.138 118.115 626.059 114.662 612.303C111.207 598.544 115.263 582.627 115.263 582.627H95.6884Z" fill="#CBD1D1"/>
<path fill-rule="evenodd" clip-rule="evenodd" d="M81.9914 621.729C81.9914 621.729 86.7258 624.357 96.9699 624.357C110.703 624.357 115.593 620.646 115.593 620.646C115.593 620.646 116.95 623.151 114.195 625.515C111.955 627.439 106.075 629.092 97.5127 628.991C88.1495 628.884 84.3414 627.72 82.3016 626.366C80.4406 625.129 80.7508 622.812 81.9914 621.729Z" fill="#2B0849"/>
<path fill-rule="evenodd" clip-rule="evenodd" d="M97.6683 586.906C97.6683 586.906 97.7437 590.321 96.9597 593.491C96.1735 596.687 94.5258 600.472 94.4094 602.799C94.2781 605.386 104.651 606.353 106.047 602.877C107.447 599.398 108.97 588.427 110.368 586.572C111.764 584.716 99.2967 581.806 97.6683 586.906Z" fill="#A4AABA"/>
<path fill-rule="evenodd" clip-rule="evenodd" d="M192.725 594.475L222.662 594.679C222.662 594.679 225.568 473.19 226.809 451.172C228.049 429.151 235.258 354.544 229.053 310.504L200.972 309.069L149.844 310.807C149.844 310.807 148.871 319.643 147.167 333.038C147.027 334.142 145.642 334.912 145.493 336.077C145.325 337.381 146.439 339.095 146.208 340.461C140.92 371.833 133.722 410.673 128.426 440.917C128.165 442.404 125.664 443.165 125.162 446.914C125.072 447.588 125.636 450.312 125.412 450.914C110.033 492.68 99.1299 563.733 91.6816 595.024L124.37 594.992C124.37 594.992 129.285 573.233 133.384 554.517C139.678 525.8 185.104 365.087 185.104 365.087L191.852 363.041L191.512 467.21C191.512 467.21 191.01 469.96 192.266 471.71C193.522 473.458 191.014 474.213 191.387 476.71L192.266 480.708C192.266 480.708 191.262 496.704 190.258 507.2C189.253 517.699 192.725 594.473 192.725 594.473" fill="#7BB2F9"/>
<path d="M206.829 476.433C206.829 476.433 213.034 473.963 220.485 467.781M139.079 468.598C141.657 468.811 148.115 464.101 154.641 457.602L139.079 468.598Z" stroke="#648BD8" stroke-width="1.085" stroke-linecap="round" stroke-linejoin="round"/>
<path d="M208.874 469.653C208.874 469.653 215.082 467.18 222.53 461.001" stroke="#648BD8" stroke-width="1.032" stroke-linecap="round" stroke-linejoin="round"/>
<path d="M95.2949 586.232H125.079M136.069 475.597C136.069 475.597 141.936 474.28 150.627 468.098L136.069 475.597ZM161.337 312.638C160.731 319.557 162.004 331.633 151.631 332.967L161.337 312.638ZM200.708 308.73C200.708 308.73 200.956 339.952 197.813 342.297C192.849 346.007 191.121 346.629 191.121 346.629L200.708 308.73ZM192.125 309.972C192.125 309.972 192.704 338.164 189.949 363.781L192.125 309.972ZM179.908 365.281C179.908 365.281 194.576 363.026 199.543 363.026L179.908 365.281ZM99.1375 578.335L97.2162 588.068L99.1375 578.335ZM101.1 563.845L99.3443 572.761L101.1 563.845ZM135.106 433.471C134.395 436.941 134.886 437.554 134.139 440.844C134.139 440.844 128.203 444.926 129.206 449.258C130.21 453.591 128.539 456.602 119.503 486.261C115.708 498.716 110.385 526.845 106.224 546.912C106.159 547.221 105.102 552.587 103.768 559.352L135.106 433.471ZM138.193 415.525C137.557 419.081 136.9 422.624 136.217 426.116L138.193 415.525ZM153.641 313.97L150.961 337.299C150.961 337.299 148.506 337.632 149.843 342.297C150.095 345.297 143.86 377.45 138.251 410.105L153.641 313.97Z" stroke="#648BD8" stroke-width="1.085" stroke-linecap="round" stroke-linejoin="round"/>
<path fill-rule="evenodd" clip-rule="evenodd" d="M228.705 303.954C222.182 302.906 188.157 298.069 150.691 304.383C150.368 304.439 150.077 304.61 149.871 304.864C149.666 305.118 149.561 305.439 149.576 305.765C149.711 308.568 149.67 310.79 149.608 312.188C149.599 312.385 149.635 312.581 149.712 312.762C149.789 312.943 149.905 313.105 150.053 313.236C150.201 313.366 150.376 313.463 150.566 313.517C150.755 313.572 150.955 313.584 151.15 313.552C158.265 312.407 187.847 308.379 227.968 312.982C228.715 313.068 229.389 312.523 229.458 311.781C229.726 308.892 229.803 306.58 229.825 305.284C229.831 304.965 229.72 304.655 229.515 304.41C229.309 304.166 229.021 304.004 228.705 303.954Z" fill="#192064"/>
<path fill-rule="evenodd" clip-rule="evenodd" d="M207.635 310.704L207.641 299.761C207.644 299.292 207.464 298.841 207.139 298.502C206.813 298.163 206.369 297.963 205.899 297.944C200.056 297.726 194.207 297.716 188.364 297.914C187.89 297.931 187.442 298.129 187.113 298.468C186.783 298.807 186.599 299.259 186.597 299.731L186.591 310.663C186.591 311.684 187.427 312.501 188.452 312.475C193.789 312.338 199.579 312.331 205.748 312.512C205.992 312.52 206.235 312.479 206.463 312.392C206.691 312.305 206.899 312.173 207.075 312.004C207.251 311.836 207.391 311.634 207.487 311.41C207.583 311.187 207.633 310.947 207.635 310.704Z" fill="white"/>
<path fill-rule="evenodd" clip-rule="evenodd" d="M205.138 308.627L205.143 301.775C205.146 301.402 205.003 301.043 204.744 300.774C204.486 300.505 204.132 300.347 203.758 300.333C199.665 300.203 195.269 300.177 190.632 300.312C190.255 300.324 189.898 300.48 189.635 300.749C189.372 301.018 189.225 301.378 189.223 301.753L189.219 308.6C189.219 309.406 189.876 310.052 190.683 310.034C194.688 309.944 199.028 309.942 203.65 310.06C204.46 310.082 205.136 309.436 205.138 308.627Z" fill="#192064"/>
<path d="M194.802 364.624L196.81 464.1C196.81 464.1 198.317 467.599 196.308 470.097C194.3 472.598 201.831 471.599 198.315 475.095C194.804 478.597 200.325 477.595 198.315 482.595C196.984 485.911 196.095 529.611 195.864 560.909M194.074 585.793H221.685H194.074ZM196.474 577.726C196.487 585.273 196.319 589.63 196.474 591.221V577.726ZM195.843 564.242C195.823 567.671 195.808 569.728 195.808 573.904L195.843 564.242Z" stroke="#648BD8" stroke-width="1.085" stroke-linecap="round" stroke-linejoin="round"/>
<path d="M167.141 192.263C167.141 192.263 183.707 205.426 202.782 198.097M158.822 210.758L163.591 220.006C163.591 220.006 168.11 221.756 167.608 225.754L169.366 230.503L158.822 210.758ZM138.491 249.249C138.993 247.25 143.178 233.92 165.598 226.754L138.491 249.249Z" stroke="#E4EBF7" stroke-width="1.085" stroke-linecap="round" stroke-linejoin="round"/>
<path fill-rule="evenodd" clip-rule="evenodd" d="M198.105 185.64C198.105 185.64 209.9 183.89 214.419 175.892C217.213 175.152 215.97 180.636 213.708 183.765C212.201 185.848 211.533 187.098 211.533 187.098C211.533 187.098 211.951 187.763 211.867 188.848C211.753 190.343 211.49 190.249 211.281 191.096C211.107 191.815 211.514 192.505 211.281 193.346C211.182 193.711 210.855 194.419 210.458 195.229C210.2 195.763 210.303 196.703 210.027 197.263C209.53 198.268 206.663 201.273 204.38 203.386C196.139 211.009 193.571 206.912 191.454 202.511C189.528 198.511 190.03 191.514 189.572 187.765C188.818 181.515 183.924 181.267 185.43 178.266C186.168 176.797 191.611 179.746 192.458 182.015C194.088 186.39 198.816 185.891 198.105 185.64Z" fill="#FFC6A0"/>
<path d="M214.962 175.935C213.96 176.1 214.208 176.518 212.873 178.601C211.533 180.683 202.497 184.889 199.109 185.515C193.532 186.545 194.202 182.17 189.946 179.392C186.306 177.018 182.274 178.024 186.935 182.39C189.067 184.389 188.942 184.765 189.946 189.265C190.668 192.495 188.568 197.136 191.454 201.26" stroke="#DB836E" stroke-width="0.774" stroke-linecap="round" stroke-linejoin="round"/>
<path d="M171.33 232.223C166.806 238.498 162.141 245.467 159.36 251.015" stroke="#E59788" stroke-width="0.774" stroke-linecap="round" stroke-linejoin="round"/>
<path fill-rule="evenodd" clip-rule="evenodd" d="M188.943 266.743C188.943 266.743 184.424 262.578 177.9 260.912C171.373 259.245 170.201 260.579 166.019 261.079C161.836 261.579 157.651 259.08 158.152 262.58C158.654 266.076 169.03 264.747 169.366 267.078C169.7 269.409 155.645 273.075 151.46 271.743C149.787 273.41 152.464 275.741 155.811 276.408C156.313 279.741 160.664 279.741 160.664 279.741C160.664 279.741 162.169 281.907 166.352 282.075C171.707 284.906 185.596 280.573 189.947 278.742C194.297 276.908 188.943 266.743 188.943 266.743Z" fill="#FFC6A0"/>
<path d="M169.867 231.002C169.867 231.002 151.795 236.918 141.504 256.998M158.152 262.578C158.152 262.578 159.573 264.996 164.973 265.62C169.96 266.199 170.494 266.87 170.494 266.87C170.494 266.87 165.012 273.077 150.958 271.743L158.152 262.578ZM155.978 276.408C155.978 276.408 164.219 276.616 166.604 274.868L155.978 276.408ZM161.501 279.574C161.501 279.574 165.725 279.866 168.738 278.491L161.501 279.574ZM166.352 282.075C166.352 282.075 170.117 282.115 172.628 280.992L166.352 282.075ZM157.943 261.495C157.943 261.495 156.661 259.282 160.661 260.579C164.26 261.746 166.763 260.697 171.706 260.912C174.698 261.043 178.312 260.275 180.283 261.234C183.742 262.915 188.106 265.911 188.106 265.911C188.106 265.911 210.779 268.494 229.102 263.494L157.943 261.495Z" stroke="#E59788" stroke-width="0.774" stroke-linecap="round" stroke-linejoin="round"/>
<path d="M235.377 240.502C235.377 240.502 242.657 232.753 251.693 230.503" stroke="#E4EBF7" stroke-width="1.085" stroke-linecap="round" stroke-linejoin="round"/>
<path d="M231.278 262.965C231.278 262.965 252.165 257.077 255.93 261.077" stroke="#E59788" stroke-width="0.774" stroke-linecap="round" stroke-linejoin="round"/>
<path d="M286.42 363.841L277.901 355.359M419.167 178.566L427.72 170.232L419.167 178.566ZM403.144 194.174L411.191 186.335L403.144 194.174ZM413.021 179.748L403.411 169.968L413.021 179.748ZM427.455 194.44L418.553 185.378L427.455 194.44ZM278.409 348.903L286.418 340.928L278.409 348.903ZM263.407 363.841L270.942 356.339L263.407 363.841ZM272.605 350.087L263.407 340.928L272.605 350.087Z" stroke="#BFCDDD" stroke-width="2" stroke-linecap="round" stroke-linejoin="round"/>
<path fill-rule="evenodd" clip-rule="evenodd" d="M409.583 453.366H406.128C403.838 453.359 401.645 452.451 400.026 450.839C398.407 449.227 397.495 447.043 397.488 444.763V375.941C397.496 373.662 398.408 371.478 400.026 369.867C401.644 368.256 403.837 367.347 406.126 367.34H409.583C411.871 367.347 414.065 368.255 415.683 369.866C417.302 371.478 418.215 373.661 418.222 375.941V444.763C418.215 447.042 417.302 449.225 415.684 450.837C414.066 452.448 411.873 453.357 409.585 453.364" fill="#A3B4C6"/>
<path fill-rule="evenodd" clip-rule="evenodd" d="M512.257 455.935C512.257 458.673 511.165 461.299 509.22 463.235C507.276 465.171 504.639 466.258 501.89 466.258H315.282C312.532 466.258 309.896 465.171 307.951 463.235C306.007 461.299 304.915 458.673 304.915 455.935C304.915 453.197 306.007 450.572 307.951 448.636C309.896 446.7 312.532 445.612 315.282 445.612H501.89C504.639 445.612 507.276 446.7 509.22 448.636C511.165 450.572 512.257 453.197 512.257 455.935Z" fill="#A3B4C6"/>
<path fill-rule="evenodd" clip-rule="evenodd" d="M331.917 406.859H483.797V225.372H331.917V406.859Z" fill="#A3B4C6"/>
<path fill-rule="evenodd" clip-rule="evenodd" d="M484.479 406.86H331.231C329.4 406.854 327.646 406.126 326.351 404.837C325.057 403.547 324.327 401.8 324.321 399.977V359.296C324.326 357.473 325.056 355.725 326.35 354.435C327.645 353.145 329.4 352.418 331.231 352.412H484.479C486.311 352.417 488.066 353.145 489.361 354.435C490.656 355.725 491.386 357.472 491.391 359.296V399.977C491.385 401.801 490.655 403.549 489.359 404.838C488.064 406.128 486.309 406.855 484.477 406.86H484.479ZM484.479 279.75H331.231C329.4 279.744 327.646 279.017 326.351 277.728C325.057 276.439 324.327 274.692 324.321 272.869V232.186C324.327 230.363 325.057 228.616 326.351 227.327C327.646 226.037 329.4 225.31 331.231 225.304H484.479C486.311 225.309 488.066 226.037 489.361 227.327C490.656 228.617 491.386 230.365 491.391 232.189V272.869C491.385 274.693 490.655 276.44 489.359 277.73C488.064 279.019 486.308 279.745 484.477 279.75" fill="#BFCDDD"/>
<path fill-rule="evenodd" clip-rule="evenodd" d="M343.688 257.688C342.998 257.702 342.313 257.579 341.671 257.326C341.03 257.073 340.446 256.695 339.954 256.214C339.461 255.734 339.069 255.16 338.802 254.527C338.535 253.894 338.397 253.214 338.397 252.527C338.397 251.84 338.535 251.16 338.802 250.527C339.069 249.894 339.461 249.32 339.954 248.839C340.446 248.359 341.03 247.981 341.671 247.728C342.313 247.474 342.998 247.351 343.688 247.365C345.044 247.393 346.336 247.949 347.285 248.914C348.235 249.879 348.766 251.176 348.766 252.527C348.766 253.878 348.235 255.175 347.285 256.14C346.336 257.105 345.044 257.661 343.688 257.688ZM359.663 257.688C358.974 257.702 358.288 257.579 357.647 257.326C357.006 257.073 356.422 256.695 355.929 256.214C355.437 255.734 355.045 255.16 354.778 254.527C354.511 253.894 354.373 253.214 354.373 252.527C354.373 251.84 354.511 251.16 354.778 250.527C355.045 249.894 355.437 249.32 355.929 248.839C356.422 248.359 357.006 247.981 357.647 247.728C358.288 247.474 358.974 247.351 359.663 247.365C361.02 247.393 362.311 247.949 363.261 248.914C364.21 249.879 364.742 251.176 364.742 252.527C364.742 253.878 364.21 255.175 363.261 256.14C362.311 257.105 361.02 257.661 359.663 257.688ZM375.639 257.688C374.949 257.702 374.264 257.579 373.623 257.326C372.982 257.073 372.398 256.695 371.905 256.214C371.412 255.734 371.021 255.16 370.754 254.527C370.486 253.894 370.349 253.214 370.349 252.527C370.349 251.84 370.486 251.16 370.754 250.527C371.021 249.894 371.412 249.32 371.905 248.839C372.398 248.359 372.982 247.981 373.623 247.728C374.264 247.474 374.949 247.351 375.639 247.365C376.995 247.393 378.287 247.949 379.237 248.914C380.186 249.879 380.718 251.176 380.718 252.527C380.718 253.878 380.186 255.175 379.237 256.14C378.287 257.105 376.995 257.661 375.639 257.688ZM479.334 257.688H430.954C430.496 257.688 430.057 257.507 429.733 257.184C429.409 256.862 429.227 256.424 429.227 255.968V249.088C429.227 248.137 430 247.365 430.954 247.365H479.331C480.288 247.365 481.061 248.137 481.061 249.088V255.968C481.061 256.918 480.286 257.688 479.334 257.688Z" fill="white"/>
<path fill-rule="evenodd" clip-rule="evenodd" d="M484.479 343.305H331.231C329.4 343.299 327.645 342.572 326.351 341.283C325.056 339.993 324.326 338.246 324.321 336.422V295.742C324.327 293.918 325.057 292.171 326.351 290.882C327.646 289.592 329.4 288.865 331.231 288.859H484.479C486.31 288.865 488.065 289.592 489.36 290.881C490.655 292.171 491.385 293.918 491.391 295.742V336.422C491.386 338.246 490.656 339.994 489.36 341.284C488.064 342.574 486.309 343.3 484.477 343.305" fill="#BFCDDD"/>
<path d="M335.087 343.624H349.628M373.61 279.75H479.801H373.61ZM355.364 279.75H368.479H355.364ZM335.91 279.75H350.449H335.91ZM374.433 343.624H480.622H374.433ZM356.185 343.624H369.3H356.185Z" stroke="#7C90A5" stroke-width="1.124" stroke-linecap="round" stroke-linejoin="round"/>
<path fill-rule="evenodd" clip-rule="evenodd" d="M343.688 323.088C342.313 323.088 340.994 322.544 340.022 321.576C339.049 320.608 338.503 319.294 338.503 317.925C338.503 316.556 339.049 315.243 340.022 314.275C340.994 313.307 342.313 312.763 343.688 312.763C345.063 312.763 346.381 313.307 347.354 314.275C348.326 315.243 348.872 316.556 348.872 317.925C348.872 319.294 348.326 320.608 347.354 321.576C346.381 322.544 345.063 323.088 343.688 323.088ZM359.663 323.088C358.288 323.088 356.97 322.544 355.997 321.576C355.025 320.608 354.479 319.294 354.479 317.925C354.479 316.556 355.025 315.243 355.997 314.275C356.97 313.307 358.288 312.763 359.663 312.763C361.038 312.763 362.357 313.307 363.329 314.275C364.302 315.243 364.848 316.556 364.848 317.925C364.848 319.294 364.302 320.608 363.329 321.576C362.357 322.544 361.038 323.088 359.663 323.088ZM375.639 323.088C374.958 323.088 374.284 322.954 373.655 322.694C373.026 322.435 372.455 322.054 371.973 321.575C371.492 321.096 371.11 320.526 370.85 319.9C370.589 319.273 370.455 318.602 370.456 317.924C370.456 317.246 370.59 316.575 370.851 315.949C371.111 315.322 371.493 314.753 371.975 314.274C372.456 313.795 373.028 313.415 373.657 313.155C374.286 312.896 374.96 312.763 375.641 312.763C377.016 312.763 378.335 313.307 379.307 314.275C380.279 315.243 380.826 316.556 380.826 317.925C380.826 319.294 380.279 320.608 379.307 321.576C378.335 322.544 377.016 323.088 375.641 323.088H375.639ZM479.334 323.088H430.954C430.496 323.088 430.057 322.907 429.733 322.584C429.409 322.261 429.227 321.824 429.227 321.368V314.485C429.227 313.535 430 312.765 430.954 312.765H479.331C480.288 312.765 481.061 313.537 481.061 314.485V321.368C481.061 322.318 480.286 323.088 479.334 323.088ZM343.688 385.178C342.998 385.192 342.313 385.069 341.671 384.816C341.03 384.563 340.446 384.185 339.954 383.704C339.461 383.223 339.069 382.65 338.802 382.016C338.535 381.383 338.397 380.703 338.397 380.016C338.397 379.33 338.535 378.65 338.802 378.017C339.069 377.383 339.461 376.81 339.954 376.329C340.446 375.848 341.03 375.47 341.671 375.217C342.313 374.964 342.998 374.841 343.688 374.855C345.044 374.882 346.336 375.438 347.285 376.403C348.235 377.368 348.766 378.665 348.766 380.016C348.766 381.367 348.235 382.665 347.285 383.63C346.336 384.595 345.044 385.15 343.688 385.178ZM359.663 385.178C358.974 385.192 358.288 385.069 357.647 384.816C357.006 384.563 356.422 384.185 355.929 383.704C355.437 383.223 355.045 382.65 354.778 382.016C354.511 381.383 354.373 380.703 354.373 380.016C354.373 379.33 354.511 378.65 354.778 378.017C355.045 377.383 355.437 376.81 355.929 376.329C356.422 375.848 357.006 375.47 357.647 375.217C358.288 374.964 358.974 374.841 359.663 374.855C361.02 374.882 362.311 375.438 363.261 376.403C364.21 377.368 364.742 378.665 364.742 380.016C364.742 381.367 364.21 382.665 363.261 383.63C362.311 384.595 361.02 385.15 359.663 385.178ZM375.639 385.178C374.949 385.192 374.264 385.069 373.623 384.816C372.982 384.563 372.398 384.185 371.905 383.704C371.412 383.223 371.021 382.65 370.754 382.016C370.486 381.383 370.349 380.703 370.349 380.016C370.349 379.33 370.486 378.65 370.754 378.017C371.021 377.383 371.412 376.81 371.905 376.329C372.398 375.848 372.982 375.47 373.623 375.217C374.264 374.964 374.949 374.841 375.639 374.855C376.995 374.882 378.287 375.438 379.237 376.403C380.186 377.368 380.718 378.665 380.718 380.016C380.718 381.367 380.186 382.665 379.237 383.63C378.287 384.595 376.995 385.15 375.639 385.178ZM479.334 385.178H430.954C430.496 385.178 430.057 384.997 429.733 384.674C429.409 384.352 429.227 383.914 429.227 383.458V376.575C429.227 375.625 430 374.855 430.954 374.855H479.331C480.288 374.855 481.061 375.627 481.061 376.575V383.458C481.061 384.408 480.286 385.178 479.334 385.178Z" fill="white"/>
<path fill-rule="evenodd" clip-rule="evenodd" d="M437.335 473.375H378.378C377.004 473.371 375.688 472.826 374.717 471.858C373.746 470.891 373.199 469.58 373.195 468.212V443.659C373.199 442.291 373.746 440.981 374.717 440.013C375.688 439.046 377.004 438.501 378.378 438.496H437.335C438.709 438.5 440.025 439.045 440.997 440.013C441.968 440.98 442.516 442.291 442.52 443.659V468.21C442.516 469.578 441.969 470.89 440.997 471.857C440.026 472.824 438.709 473.369 437.335 473.373" fill="#BFCDDD"/>
<path d="M433.047 443.581V468.289M381.803 443.581V468.289V443.581Z" stroke="#A3B4C6" stroke-width="1.124" stroke-linecap="round" stroke-linejoin="round"/>
<path fill-rule="evenodd" clip-rule="evenodd" d="M350.818 573.721C345.435 573.721 340.273 571.592 336.467 567.803C332.662 564.013 330.523 558.873 330.523 553.513V521.727C330.579 516.403 332.741 511.316 336.541 507.571C340.341 503.825 345.472 501.725 350.819 501.725C356.166 501.725 361.296 503.825 365.097 507.571C368.897 511.316 371.059 516.403 371.114 521.727V553.513C371.114 558.873 368.975 564.013 365.169 567.803C361.363 571.592 356.2 573.721 350.818 573.721Z" fill="#5BA02E"/>
<path fill-rule="evenodd" clip-rule="evenodd" d="M368.796 573.584C366.131 573.584 363.492 573.062 361.029 572.046C358.567 571.03 356.33 569.541 354.445 567.665C352.561 565.788 351.066 563.56 350.046 561.108C349.026 558.656 348.502 556.028 348.502 553.374V546C348.557 540.676 350.72 535.589 354.52 531.844C358.32 528.098 363.451 525.998 368.797 525.998C374.144 525.998 379.275 528.098 383.075 531.844C386.875 535.589 389.038 540.676 389.093 546V553.374C389.093 558.734 386.955 563.874 383.149 567.664C379.343 571.454 374.181 573.584 368.798 573.584" fill="#92C110"/>
<path fill-rule="evenodd" clip-rule="evenodd" d="M390.529 628.998H330.84C329.932 628.998 329.033 628.82 328.194 628.474C327.355 628.128 326.593 627.62 325.951 626.981C325.31 626.342 324.8 625.583 324.453 624.747C324.106 623.912 323.927 623.017 323.928 622.113V577.788C323.927 576.884 324.106 575.989 324.453 575.154C324.8 574.318 325.31 573.559 325.951 572.92C326.593 572.281 327.355 571.774 328.194 571.427C329.033 571.081 329.932 570.903 330.84 570.903H390.527C391.435 570.903 392.334 571.081 393.173 571.427C394.012 571.774 394.774 572.281 395.416 572.92C396.057 573.559 396.566 574.318 396.914 575.154C397.261 575.989 397.44 576.884 397.439 577.788V622.117C397.439 623.943 396.711 625.693 395.415 626.984C394.119 628.275 392.36 629 390.527 629" fill="#F2D7AD"/>
</svg>
