<svg width="99" height="91" viewBox="0 0 99 91" fill="none" xmlns="http://www.w3.org/2000/svg">
<ellipse cx="85.8112" cy="13.3125" rx="9.51773" ry="8.875" fill="#FCC12B"/>
<ellipse cx="39.8426" cy="49.7004" rx="22.8426" ry="21.3" fill="#FCC12B"/>
<g filter="url(#filter0_bd_327_1642)">
<ellipse cx="59.769" cy="35.5" rx="38.881" ry="35.5" fill="url(#paint0_linear_327_1642)"/>
<path d="M98.15 35.5C98.15 54.7881 81.01 70.5 59.769 70.5C38.528 70.5 21.3881 54.7881 21.3881 35.5C21.3881 16.2119 38.528 0.5 59.769 0.5C81.01 0.5 98.15 16.2119 98.15 35.5Z" stroke="url(#paint1_linear_327_1642)"/>
</g>
<g clip-path="url(#clip0_327_1642)" filter="url(#filter1_d_327_1642)">
<path d="M61.4527 18.6374L79.9717 47.9249C80.1423 48.1948 80.2321 48.5008 80.2321 48.8124C80.2321 49.124 80.1423 49.4301 79.9717 49.6999C79.8011 49.9697 79.5557 50.1938 79.2602 50.3496C78.9646 50.5054 78.6294 50.5874 78.2881 50.5874H41.2502C40.9089 50.5874 40.5737 50.5054 40.2781 50.3496C39.9826 50.1938 39.7372 49.9697 39.5666 49.6999C39.396 49.4301 39.3062 49.124 39.3062 48.8124C39.3062 48.5008 39.396 48.1948 39.5666 47.9249L58.0856 18.6374C58.2562 18.3676 58.5016 18.1436 58.7972 17.9878C59.0927 17.832 59.4279 17.75 59.7691 17.75C60.1104 17.75 60.4456 17.832 60.7411 17.9878C61.0367 18.1436 61.2821 18.3676 61.4527 18.6374V18.6374ZM44.6172 47.0374H74.9211L59.7691 23.0749L44.6172 47.0374V47.0374ZM57.8251 41.7124H61.7132V45.2624H57.8251V41.7124ZM57.8251 29.2874H61.7132V38.1624H57.8251V29.2874Z" fill="white"/>
</g>
<defs>
<filter id="filter0_bd_327_1642" x="0.888062" y="-20" width="117.762" height="111" filterUnits="userSpaceOnUse" color-interpolation-filters="sRGB">
<feFlood flood-opacity="0" result="BackgroundImageFix"/>
<feGaussianBlur in="BackgroundImage" stdDeviation="10"/>
<feComposite in2="SourceAlpha" operator="in" result="effect1_backgroundBlur_327_1642"/>
<feColorMatrix in="SourceAlpha" type="matrix" values="0 0 0 0 0 0 0 0 0 0 0 0 0 0 0 0 0 0 127 0" result="hardAlpha"/>
<feOffset dx="-10" dy="10"/>
<feGaussianBlur stdDeviation="5"/>
<feColorMatrix type="matrix" values="0 0 0 0 0 0 0 0 0 0 0 0 0 0 0 0 0 0 0.05 0"/>
<feBlend mode="normal" in2="effect1_backgroundBlur_327_1642" result="effect2_dropShadow_327_1642"/>
<feBlend mode="normal" in="SourceGraphic" in2="effect2_dropShadow_327_1642" result="shape"/>
</filter>
<filter id="filter1_d_327_1642" x="26.4406" y="8.3125" width="66.6571" height="62.5996" filterUnits="userSpaceOnUse" color-interpolation-filters="sRGB">
<feFlood flood-opacity="0" result="BackgroundImageFix"/>
<feColorMatrix in="SourceAlpha" type="matrix" values="0 0 0 0 0 0 0 0 0 0 0 0 0 0 0 0 0 0 127 0" result="hardAlpha"/>
<feOffset dy="5"/>
<feGaussianBlur stdDeviation="5"/>
<feColorMatrix type="matrix" values="0 0 0 0 0 0 0 0 0 0 0 0 0 0 0 0 0 0 0.25 0"/>
<feBlend mode="normal" in2="BackgroundImageFix" result="effect1_dropShadow_327_1642"/>
<feBlend mode="normal" in="SourceGraphic" in2="effect1_dropShadow_327_1642" result="shape"/>
</filter>
<linearGradient id="paint0_linear_327_1642" x1="37.4125" y1="59.0187" x2="84.3371" y2="8.59482" gradientUnits="userSpaceOnUse">
<stop stop-color="#FCC12B" stop-opacity="0.5"/>
<stop offset="1" stop-color="white" stop-opacity="0.25"/>
</linearGradient>
<linearGradient id="paint1_linear_327_1642" x1="34.4964" y1="59.4625" x2="84.3696" y2="9.22883" gradientUnits="userSpaceOnUse">
<stop stop-color="white" stop-opacity="0.25"/>
<stop offset="1" stop-color="white" stop-opacity="0.05"/>
</linearGradient>
<clipPath id="clip0_327_1642">
<rect width="46.6571" height="42.6" fill="white" transform="translate(36.4406 13.3125)"/>
</clipPath>
</defs>
</svg>
