<svg width="53" height="49" viewBox="0 0 53 49" fill="none" xmlns="http://www.w3.org/2000/svg">
<g filter="url(#filter0_d_248_1156)">
<path d="M33.5312 27.3216C35.3425 27.3216 36.8125 28.8516 36.8125 30.7368V34.6438L36.7975 34.8546C36.2163 39.0055 32.635 41 26.6256 41C20.6388 41 16.9994 39.0289 16.2137 34.9268L16.1875 34.6399V30.7368C16.1875 28.8516 17.6575 27.3216 19.4688 27.3216H33.5312ZM34.4575 15.6124H45.7188C47.53 15.6124 49 17.1424 49 19.0276V22.9346L48.985 23.1453C48.4038 27.2963 44.8225 29.2907 38.8131 29.2907L38.4981 29.2868C38.2091 28.2173 37.6085 27.2673 36.779 26.568C35.9495 25.8686 34.9321 25.4541 33.8669 25.3818L33.5312 25.3701H31.8025C32.7823 24.5478 33.5725 23.5074 34.115 22.3253C34.6576 21.1433 34.9386 19.8497 34.9375 18.5397C34.9375 17.5132 34.7687 16.5296 34.4575 15.6124ZM7.28125 15.6124H18.5425C18.2312 16.5296 18.0625 17.5132 18.0625 18.5397C18.0625 21.1352 19.1463 23.4712 20.8675 25.0773L21.1975 25.3701H19.4688C17.1025 25.3701 15.1075 27.0289 14.5 29.2927L14.4381 29.2907C8.45125 29.2907 4.81187 27.3197 4.02625 23.2175L4 22.9306V19.0276C4 17.1424 5.47 15.6124 7.28125 15.6124ZM26.5 11.7093C28.2405 11.7093 29.9097 12.4289 31.1404 13.7098C32.3711 14.9908 33.0625 16.7281 33.0625 18.5397C33.0625 20.3512 32.3711 22.0886 31.1404 23.3695C29.9097 24.6504 28.2405 25.3701 26.5 25.3701C24.7595 25.3701 23.0903 24.6504 21.8596 23.3695C20.6289 22.0886 19.9375 20.3512 19.9375 18.5397C19.9375 16.7281 20.6289 14.9908 21.8596 13.7098C23.0903 12.4289 24.7595 11.7093 26.5 11.7093ZM38.6875 0C40.428 0 42.0972 0.71963 43.3279 2.00058C44.5586 3.28153 45.25 5.01887 45.25 6.83041C45.25 8.64194 44.5586 10.3793 43.3279 11.6602C42.0972 12.9412 40.428 13.6608 38.6875 13.6608C36.947 13.6608 35.2778 12.9412 34.0471 11.6602C32.8164 10.3793 32.125 8.64194 32.125 6.83041C32.125 5.01887 32.8164 3.28153 34.0471 2.00058C35.2778 0.71963 36.947 0 38.6875 0ZM14.3125 0C16.053 0 17.7222 0.71963 18.9529 2.00058C20.1836 3.28153 20.875 5.01887 20.875 6.83041C20.875 8.64194 20.1836 10.3793 18.9529 11.6602C17.7222 12.9412 16.053 13.6608 14.3125 13.6608C12.572 13.6608 10.9028 12.9412 9.67211 11.6602C8.4414 10.3793 7.75 8.64194 7.75 6.83041C7.75 5.01887 8.4414 3.28153 9.67211 2.00058C10.9028 0.71963 12.572 0 14.3125 0Z" fill="#E43A19"/>
</g>
<defs>
<filter id="filter0_d_248_1156" x="0" y="0" width="53" height="49" filterUnits="userSpaceOnUse" color-interpolation-filters="sRGB">
<feFlood flood-opacity="0" result="BackgroundImageFix"/>
<feColorMatrix in="SourceAlpha" type="matrix" values="0 0 0 0 0 0 0 0 0 0 0 0 0 0 0 0 0 0 127 0" result="hardAlpha"/>
<feOffset dy="4"/>
<feGaussianBlur stdDeviation="2"/>
<feColorMatrix type="matrix" values="0 0 0 0 0 0 0 0 0 0 0 0 0 0 0 0 0 0 0.25 0"/>
<feBlend mode="normal" in2="BackgroundImageFix" result="effect1_dropShadow_248_1156"/>
<feBlend mode="normal" in="SourceGraphic" in2="effect1_dropShadow_248_1156" result="shape"/>
</filter>
</defs>
</svg>
