<svg width="97" height="103" viewBox="0 0 97 103" fill="none" xmlns="http://www.w3.org/2000/svg">
<ellipse cx="87.6163" cy="15.5" rx="9.37708" ry="10.5" fill="#FC2B36"/>
<ellipse cx="38.8558" cy="58" rx="22.5049" ry="25" fill="#FC2B36"/>
<g filter="url(#filter0_bd_1033_2438)">
<ellipse cx="58.5476" cy="41.5" rx="38.4459" ry="41.5" fill="url(#paint0_linear_1033_2438)"/>
<path d="M96.4934 41.5C96.4934 64.1804 79.4692 82.5 58.5476 82.5C37.6259 82.5 20.6017 64.1804 20.6017 41.5C20.6017 18.8196 37.6259 0.5 58.5476 0.5C79.4692 0.5 96.4934 18.8196 96.4934 41.5Z" stroke="url(#paint1_linear_1033_2438)"/>
</g>
<g filter="url(#filter1_d_1033_2438)">
<path d="M58.5476 61.9173C47.7581 61.9173 39.0121 52.7768 39.0121 41.5007C39.0121 30.2245 47.7581 21.084 58.5476 21.084C69.337 21.084 78.0831 30.2245 78.0831 41.5007C78.0831 52.7768 69.337 61.9173 58.5476 61.9173ZM58.5476 57.834C62.6925 57.834 66.6676 56.1132 69.5985 53.0501C72.5294 49.987 74.176 45.8325 74.176 41.5007C74.176 37.1688 72.5294 33.0143 69.5985 29.9512C66.6676 26.8881 62.6925 25.1673 58.5476 25.1673C54.4027 25.1673 50.4275 26.8881 47.4966 29.9512C44.5657 33.0143 42.9192 37.1688 42.9192 41.5007C42.9192 45.8325 44.5657 49.987 47.4966 53.0501C50.4275 56.1132 54.4027 57.834 58.5476 57.834ZM56.594 47.6257H60.5011V51.709H56.594V47.6257ZM56.594 31.2923H60.5011V43.5423H56.594V31.2923Z" fill="white"/>
</g>
<defs>
<filter id="filter0_bd_1033_2438" x="0.101685" y="-20" width="116.892" height="123" filterUnits="userSpaceOnUse" color-interpolation-filters="sRGB">
<feFlood flood-opacity="0" result="BackgroundImageFix"/>
<feGaussianBlur in="BackgroundImage" stdDeviation="10"/>
<feComposite in2="SourceAlpha" operator="in" result="effect1_backgroundBlur_1033_2438"/>
<feColorMatrix in="SourceAlpha" type="matrix" values="0 0 0 0 0 0 0 0 0 0 0 0 0 0 0 0 0 0 127 0" result="hardAlpha"/>
<feOffset dx="-10" dy="10"/>
<feGaussianBlur stdDeviation="5"/>
<feColorMatrix type="matrix" values="0 0 0 0 0 0 0 0 0 0 0 0 0 0 0 0 0 0 0.05 0"/>
<feBlend mode="normal" in2="effect1_backgroundBlur_1033_2438" result="effect2_dropShadow_1033_2438"/>
<feBlend mode="normal" in="SourceGraphic" in2="effect2_dropShadow_1033_2438" result="shape"/>
</filter>
<filter id="filter1_d_1033_2438" x="25.105" y="12" width="66.8853" height="69" filterUnits="userSpaceOnUse" color-interpolation-filters="sRGB">
<feFlood flood-opacity="0" result="BackgroundImageFix"/>
<feColorMatrix in="SourceAlpha" type="matrix" values="0 0 0 0 0 0 0 0 0 0 0 0 0 0 0 0 0 0 127 0" result="hardAlpha"/>
<feOffset dy="5"/>
<feGaussianBlur stdDeviation="5"/>
<feColorMatrix type="matrix" values="0 0 0 0 0 0 0 0 0 0 0 0 0 0 0 0 0 0 0.25 0"/>
<feBlend mode="normal" in2="BackgroundImageFix" result="effect1_dropShadow_1033_2438"/>
<feBlend mode="normal" in="SourceGraphic" in2="effect1_dropShadow_1033_2438" result="shape"/>
</filter>
<linearGradient id="paint0_linear_1033_2438" x1="36.4412" y1="68.9937" x2="91.1889" y2="19.2321" gradientUnits="userSpaceOnUse">
<stop stop-color="#FC2B36" stop-opacity="0.5"/>
<stop offset="1" stop-color="white" stop-opacity="0.25"/>
</linearGradient>
<linearGradient id="paint1_linear_1033_2438" x1="33.5577" y1="69.5125" x2="91.1214" y2="20.4704" gradientUnits="userSpaceOnUse">
<stop stop-color="white" stop-opacity="0.25"/>
<stop offset="1" stop-color="white" stop-opacity="0.05"/>
</linearGradient>
</defs>
</svg>
