<svg width="307" height="300" viewBox="0 60 207 200" fill="none" xmlns="http://www.w3.org/2000/svg">
<path d="M112.676 195.708C111.35 190.922 109.468 186.841 106.398 183.955C102.975 180.739 97.6812 181.158 93.4453 183.112C91.8718 183.838 90.2764 184.889 89.1008 186.662C86.386 190.759 88.286 194.462 90.6269 196.6C91.9458 197.806 93.5074 198.43 95.0524 199.045C97.6179 200.066 99.9688 202.172 102.742 202.434C103.674 202.52 104.577 202.305 105.464 202.675C106.844 203.251 108.078 204.38 109.436 205.054C110.597 205.626 112.105 205.976 113.11 204.592C114.14 203.171 113.908 200.957 113.537 199.241C113.276 198.024 112.993 196.846 112.676 195.708Z" fill="url(#paint0_linear_860_12326)"/>
<path d="M95.7705 192.923C92.1939 177.749 81.4322 168.052 71.2923 169.32C66.4026 169.933 61.8487 173.383 57.5602 177.134C53.7801 180.439 50.0372 184.134 47.035 189.102C44.9853 192.492 43.2224 196.825 41.8106 200.96C39.6982 207.152 39.3619 216.052 44.8763 217.522C46.1701 217.866 47.3817 217.57 48.6683 217.399C49.7093 217.259 50.604 217.93 51.6412 218.066C54.2516 218.409 56.899 217.885 59.4536 217.06C64.6602 215.375 69.6585 212.284 74.9308 211.082C79.2509 210.1 83.6503 210.431 87.8916 212.057C89.6808 212.744 91.5307 213.668 93.3265 213.024C97.7529 211.435 97.2826 202.357 96.5429 197.067C96.348 195.658 96.0898 194.274 95.7705 192.923Z" fill="url(#paint1_linear_860_12326)"/>
<path d="M46.5779 188.807C43.2161 172.548 32.5247 162.496 22.2845 164.271C17.3464 165.128 12.7014 169.038 8.31902 173.263C4.45619 176.987 0.624589 181.13 -2.48076 186.618C-4.60091 190.365 -6.44706 195.118 -7.93625 199.644C-10.1644 206.421 -10.6459 216.054 -5.11149 217.422C-3.81301 217.743 -2.58713 217.375 -1.28755 217.138C-0.236115 216.946 0.6549 217.635 1.69807 217.741C4.32355 218.008 7.00027 217.336 9.58824 216.342C14.8629 214.313 19.9501 210.774 25.2832 209.264C29.6531 208.031 34.0819 208.213 38.3306 209.802C40.1229 210.473 41.9727 211.398 43.7929 210.631C48.2797 208.737 47.951 198.944 47.2901 193.255C47.1162 191.74 46.8782 190.254 46.5779 188.807Z" fill="url(#paint2_linear_860_12326)"/>
<path d="M58.1666 194.622C56.1032 191.334 53.7997 188.737 50.9129 187.382C47.6952 185.872 43.9642 187.656 41.3528 190.32C40.3826 191.31 39.4717 192.553 39.0312 194.232C38.0143 198.112 40.2434 200.414 42.4299 201.4C43.6622 201.956 44.9354 202.001 46.1946 202.044C48.2854 202.114 50.4717 203.072 52.5375 202.505C53.2312 202.314 53.8343 201.899 54.5612 201.937C55.6921 201.995 56.8448 202.516 57.9822 202.655C58.9541 202.771 60.1254 202.621 60.5326 201.286C60.949 199.916 60.2697 198.29 59.6054 197.082C59.1359 196.225 58.6587 195.404 58.1666 194.622Z" fill="url(#paint3_linear_860_12326)"/>
<path d="M212.03 198.676C208.46 183.515 197.695 173.841 187.546 175.123C182.652 175.742 178.092 179.197 173.798 182.952C170.013 186.262 166.264 189.96 163.257 194.93C161.203 198.322 159.436 202.654 158.021 206.789C155.903 212.981 155.561 221.877 161.079 223.337C162.374 223.68 163.587 223.382 164.874 223.209C165.916 223.068 166.811 223.737 167.849 223.871C170.462 224.21 173.112 223.682 175.669 222.854C180.881 221.162 185.885 218.066 191.162 216.856C195.487 215.869 199.889 216.193 204.133 217.812C205.924 218.495 207.774 219.416 209.572 218.771C214.003 217.176 213.538 208.103 212.801 202.817C212.606 201.41 212.349 200.026 212.03 198.676V198.676Z" fill="url(#paint4_linear_860_12326)"/>
<path d="M157.535 199.833C154.173 183.575 143.482 173.523 133.242 175.297C128.303 176.154 123.658 180.065 119.276 184.29C115.413 188.014 111.582 192.156 108.476 197.645C106.356 201.391 104.51 206.145 103.021 210.67C100.793 217.447 100.311 227.081 105.846 228.449C107.144 228.77 108.37 228.402 109.669 228.165C110.721 227.972 111.612 228.662 112.655 228.767C115.281 229.034 117.957 228.362 120.545 227.369C125.82 225.34 130.907 221.8 136.24 220.291C140.61 219.057 145.039 219.24 149.288 220.829C151.08 221.499 152.93 222.424 154.75 221.657C159.237 219.764 158.908 209.97 158.247 204.281C158.073 202.767 157.835 201.281 157.535 199.833Z" fill="url(#paint5_linear_860_12326)"/>
<path d="M175.181 197.113C173.484 193.461 171.478 190.447 168.763 188.55C165.737 186.435 161.856 187.481 158.991 189.615C157.927 190.407 156.894 191.462 156.281 193.039C154.867 196.683 156.831 199.392 158.891 200.789C160.052 201.577 161.308 201.867 162.549 202.152C164.612 202.624 166.675 203.994 168.779 203.832C169.486 203.775 170.127 203.481 170.842 203.659C171.955 203.934 173.041 204.672 174.153 205.029C175.102 205.331 176.277 205.409 176.821 204.166C177.377 202.89 176.876 201.149 176.346 199.826C175.971 198.887 175.585 197.982 175.181 197.113Z" fill="url(#paint6_linear_860_12326)"/>
<path opacity="0.9" d="M203.01 0.0228102C205.219 0.0102124 207.02 1.79083 207.034 3.99993L208.18 196.58C208.194 198.789 206.413 200.59 204.204 200.602L6.76718 201.728C4.55808 201.741 2.75659 199.96 2.74344 197.751L1.5966 5.17146C1.58344 2.96236 3.36361 1.16132 5.57271 1.14872L203.01 0.0228102Z" fill="url(#paint7_linear_860_12326)" fill-opacity="0.21"/>
<defs>
<linearGradient id="paint0_linear_860_12326" x1="89.5934" y1="193.243" x2="113.494" y2="181.251" gradientUnits="userSpaceOnUse">
<stop stop-color="#B287FF"/>
<stop offset="0.864583" stop-color="#111F4D"/>
</linearGradient>
<linearGradient id="paint1_linear_860_12326" x1="57.2038" y1="206.254" x2="89.6899" y2="160.659" gradientUnits="userSpaceOnUse">
<stop offset="0.193535" stop-color="#00255C"/>
<stop offset="0.734375" stop-color="#B287FF"/>
</linearGradient>
<linearGradient id="paint2_linear_860_12326" x1="-7.75253" y1="188.102" x2="43.4396" y2="176.556" gradientUnits="userSpaceOnUse">
<stop stop-color="#00255C"/>
<stop offset="1" stop-color="#B287FF"/>
</linearGradient>
<linearGradient id="paint3_linear_860_12326" x1="57.3001" y1="192.815" x2="37.0746" y2="204.027" gradientUnits="userSpaceOnUse">
<stop offset="0.03125" stop-color="#B287FF"/>
<stop offset="1" stop-color="#00255C"/>
</linearGradient>
<linearGradient id="paint4_linear_860_12326" x1="158.04" y1="196.118" x2="207.766" y2="183.421" gradientUnits="userSpaceOnUse">
<stop stop-color="#00255C"/>
<stop offset="1" stop-color="#B287FF"/>
</linearGradient>
<linearGradient id="paint5_linear_860_12326" x1="103.204" y1="199.129" x2="154.397" y2="187.583" gradientUnits="userSpaceOnUse">
<stop stop-color="#B287FF"/>
<stop offset="1" stop-color="#00255C"/>
</linearGradient>
<linearGradient id="paint6_linear_860_12326" x1="181.193" y1="179.889" x2="155.87" y2="212.362" gradientUnits="userSpaceOnUse">
<stop offset="0.0342757" stop-color="#111F4D"/>
<stop offset="1" stop-color="#B287FF"/>
</linearGradient>
<linearGradient id="paint7_linear_860_12326" x1="76.0458" y1="95.6815" x2="169.167" y2="10.1661" gradientUnits="userSpaceOnUse">
<stop stop-color="#C891FF"/>
<stop offset="0.337296" stop-color="#0A0135"/>
<stop offset="0.740573" stop-color="#C993FF" stop-opacity="0.99"/>
</linearGradient>
</defs>
</svg>
