<svg width="100" height="100" viewBox="0 0 188 160" fill="none" xmlns="http://www.w3.org/2000/svg">
<g filter="url(#filter0_dd)">
<path d="M107.775 3.44724C104.366 6.28613 103.635 7.60419 103.635 11.3556C103.635 15.7153 105.705 19.3653 110.089 22.3056C112.159 23.7251 112.037 24.4348 107.288 37.8182C104.609 45.5238 102.417 51.9113 102.417 52.1141C102.417 52.3168 99.1297 52.7224 95.1114 53.0265C86.4661 53.6349 80.8649 56.271 76.2378 61.8474C68.4449 71.1752 72.3413 85.5725 84.3961 91.7572C86.2226 92.6697 85.6137 94.4947 79.4037 108.486L72.3413 124.202L66.6184 124.912C63.4525 125.317 59.7995 126.331 58.4601 127.243C56.0248 129.17 56.6336 129.474 37.1512 116.395L28.5059 110.616L29.1147 105.546C29.6018 100.882 29.3582 100.173 25.9488 97.3336C17.3035 90.135 2.32636 96.2184 4.15284 106.155C5.61402 113.556 14.3811 117.409 22.1741 114.164L26.1923 112.542L33.4982 117.307C53.833 130.387 53.7113 130.184 52.9807 132.313C51.1542 137.382 51.276 140.627 53.346 143.973C57.486 150.563 66.8619 153.807 73.559 150.969C78.5514 148.839 82.9349 144.581 83.6655 141.134C84.7614 136.47 82.3261 130.082 78.6731 128.156C76.9684 127.243 75.629 126.027 75.629 125.317C75.629 124.709 78.6731 117.307 82.4478 108.791L89.2667 93.3795L94.3808 93.8864C101.078 94.6975 109.601 91.6558 115.203 86.5864L119.221 82.9364L135.416 88.9183L151.489 94.9003L151.732 99.6656C152.706 117.916 184 116.902 184 98.5503C184 95.0017 178.521 88.7156 174.137 87.1947C169.023 85.3697 161.23 86.485 157.333 89.6281C155.507 91.0475 153.559 92.2642 153.072 92.2642C152.463 92.2642 144.913 89.6281 136.268 86.485L120.439 80.8072L121.169 76.6502C122.752 68.1335 117.394 59.7182 107.044 54.2432C105.34 53.3307 105.583 51.6071 110.089 38.6293L115.203 24.0292L119.221 23.7251C137.242 22.1028 135.537 0 117.394 0C112.767 0 111.306 0.506943 107.775 3.44724Z" fill="#111F4D"/>
</g>
<path d="M82.9307 29.4911C68.7601 32.8014 55.4231 41.4281 48.5164 51.5594C39.3472 64.9008 38.8709 82.5554 47.3256 96.4986C49.5881 100.31 62.2107 112.348 63.8778 112.348C64.9496 112.348 71.0227 99.6082 71.0227 97.5017C71.0227 96.8998 69.1174 94.2918 66.8548 91.784C52.2079 75.634 62.3298 52.061 86.7413 45.3402L92.6954 43.6349L95.4342 35.8107L98.054 28.0868L93.1717 28.1871C90.4328 28.1871 85.9078 28.7889 82.9307 29.4911Z" fill="#E43A19"/>
<path d="M121.81 42.0694L119.135 50.0574L123.322 54.0514C128.673 59.0439 132.046 65.7338 132.046 71.2255V75.4192L141.35 79.0138L150.539 82.6084L151.353 78.0153C152.4 72.3239 149.492 60.3419 145.305 53.0529C142.281 47.7608 131.348 37.2766 126.812 35.0799C124.602 34.0814 124.253 34.5807 121.81 42.0694Z" fill="#E43A19"/>
<path d="M118.166 98.521C112.749 101.516 108.054 103.113 101.915 103.911C97.9432 104.51 97.4617 104.91 95.0543 110.699C93.6099 114.193 92.045 117.787 91.6839 118.685C89.8784 122.479 109.499 120.282 121.777 115.391C129.36 112.297 140.795 104.91 140.193 103.412C139.953 102.913 135.98 101.017 131.406 99.2198L122.86 95.8258L118.166 98.521Z" fill="#E43A19"/>
<g filter="url(#filter1_dd)">
<path d="M107.775 3.44724C104.366 6.28613 103.635 7.60419 103.635 11.3556C103.635 15.7153 105.705 19.3653 110.089 22.3056C112.159 23.7251 112.037 24.4348 107.288 37.8182C104.609 45.5238 102.417 51.9113 102.417 52.1141C102.417 52.3168 99.1297 52.7224 95.1114 53.0265C86.4661 53.6349 80.8649 56.271 76.2378 61.8474C68.4449 71.1752 72.3413 85.5725 84.3961 91.7572C86.2226 92.6697 85.6137 94.4947 79.4037 108.486L72.3413 124.202L66.6184 124.912C63.4525 125.317 59.7995 126.331 58.4601 127.243C56.0248 129.17 56.6336 129.474 37.1512 116.395L28.5059 110.616L29.1147 105.546C29.6018 100.882 29.3582 100.173 25.9488 97.3336C17.3035 90.135 2.32636 96.2184 4.15284 106.155C5.61402 113.556 14.3811 117.409 22.1741 114.164L26.1923 112.542L33.4982 117.307C53.833 130.387 53.7113 130.184 52.9807 132.313C51.1542 137.382 51.276 140.627 53.346 143.973C57.486 150.563 66.8619 153.807 73.559 150.969C78.5514 148.839 82.9349 144.581 83.6655 141.134C84.7614 136.47 82.3261 130.082 78.6731 128.156C76.9684 127.243 75.629 126.027 75.629 125.317C75.629 124.709 78.6731 117.307 82.4478 108.791L89.2667 93.3795L94.3808 93.8864C101.078 94.6975 109.601 91.6558 115.203 86.5864L119.221 82.9364L135.416 88.9183L151.489 94.9003L151.732 99.6656C152.706 117.916 184 116.902 184 98.5503C184 95.0017 178.521 88.7156 174.137 87.1947C169.023 85.3697 161.23 86.485 157.333 89.6281C155.507 91.0475 153.559 92.2642 153.072 92.2642C152.463 92.2642 144.913 89.6281 136.268 86.485L120.439 80.8072L121.169 76.6502C122.752 68.1335 117.394 59.7182 107.044 54.2432C105.34 53.3307 105.583 51.6071 110.089 38.6293L115.203 24.0292L119.221 23.7251C137.242 22.1028 135.537 0 117.394 0C112.767 0 111.306 0.506943 107.775 3.44724Z" fill="#111F4D"/>
</g>
<path d="M82.9307 29.4911C68.7601 32.8014 55.4231 41.4281 48.5164 51.5594C39.3472 64.9008 38.8709 82.5554 47.3256 96.4986C49.5881 100.31 62.2107 112.348 63.8778 112.348C64.9496 112.348 71.0227 99.6082 71.0227 97.5017C71.0227 96.8998 69.1174 94.2918 66.8548 91.784C52.2079 75.634 62.3298 52.061 86.7413 45.3402L92.6954 43.6349L95.4342 35.8107L98.054 28.0868L93.1717 28.1871C90.4328 28.1871 85.9078 28.7889 82.9307 29.4911Z" fill="#E43A19"/>
<path d="M121.81 42.0694L119.135 50.0574L123.322 54.0514C128.673 59.0439 132.046 65.7338 132.046 71.2255V75.4192L141.35 79.0138L150.539 82.6084L151.353 78.0153C152.4 72.3239 149.492 60.3419 145.305 53.0529C142.281 47.7608 131.348 37.2766 126.812 35.0799C124.602 34.0814 124.253 34.5807 121.81 42.0694Z" fill="#E43A19"/>
<path d="M118.166 98.521C112.749 101.516 108.054 103.113 101.915 103.911C97.9432 104.51 97.4617 104.91 95.0543 110.699C93.6099 114.193 92.045 117.787 91.6839 118.685C89.8784 122.479 109.499 120.282 121.777 115.391C129.36 112.297 140.795 104.91 140.193 103.412C139.953 102.913 135.98 101.017 131.406 99.2198L122.86 95.8258L118.166 98.521Z" fill="#E43A19"/>
<defs>
<filter id="filter0_dd" x="0" y="0" width="188" height="160" filterUnits="userSpaceOnUse" color-interpolation-filters="sRGB">
<feFlood flood-opacity="0" result="BackgroundImageFix"/>
<feColorMatrix in="SourceAlpha" type="matrix" values="0 0 0 0 0 0 0 0 0 0 0 0 0 0 0 0 0 0 127 0" result="hardAlpha"/>
<feOffset dy="4"/>
<feGaussianBlur stdDeviation="2"/>
<feColorMatrix type="matrix" values="0 0 0 0 0 0 0 0 0 0 0 0 0 0 0 0 0 0 0.25 0"/>
<feBlend mode="normal" in2="BackgroundImageFix" result="effect1_dropShadow"/>
<feColorMatrix in="SourceAlpha" type="matrix" values="0 0 0 0 0 0 0 0 0 0 0 0 0 0 0 0 0 0 127 0" result="hardAlpha"/>
<feOffset dy="4"/>
<feGaussianBlur stdDeviation="2"/>
<feColorMatrix type="matrix" values="0 0 0 0 0 0 0 0 0 0 0 0 0 0 0 0 0 0 0.25 0"/>
<feBlend mode="normal" in2="effect1_dropShadow" result="effect2_dropShadow"/>
<feBlend mode="normal" in="SourceGraphic" in2="effect2_dropShadow" result="shape"/>
</filter>
<filter id="filter1_dd" x="0" y="0" width="188" height="160" filterUnits="userSpaceOnUse" color-interpolation-filters="sRGB">
<feFlood flood-opacity="0" result="BackgroundImageFix"/>
<feColorMatrix in="SourceAlpha" type="matrix" values="0 0 0 0 0 0 0 0 0 0 0 0 0 0 0 0 0 0 127 0" result="hardAlpha"/>
<feOffset dy="4"/>
<feGaussianBlur stdDeviation="2"/>
<feColorMatrix type="matrix" values="0 0 0 0 0 0 0 0 0 0 0 0 0 0 0 0 0 0 0.25 0"/>
<feBlend mode="normal" in2="BackgroundImageFix" result="effect1_dropShadow"/>
<feColorMatrix in="SourceAlpha" type="matrix" values="0 0 0 0 0 0 0 0 0 0 0 0 0 0 0 0 0 0 127 0" result="hardAlpha"/>
<feOffset dy="4"/>
<feGaussianBlur stdDeviation="2"/>
<feColorMatrix type="matrix" values="0 0 0 0 0 0 0 0 0 0 0 0 0 0 0 0 0 0 0.25 0"/>
<feBlend mode="normal" in2="effect1_dropShadow" result="effect2_dropShadow"/>
<feBlend mode="normal" in="SourceGraphic" in2="effect2_dropShadow" result="shape"/>
</filter>
</defs>
</svg>
