<svg width="125" height="111" viewBox="0 0 165 151" fill="none" xmlns="http://www.w3.org/2000/svg">
<ellipse cx="82.5" cy="75.5" rx="82.5" ry="75.5" fill="#E43A19"/>
<ellipse cx="83.1185" cy="71.3253" rx="72.976" ry="70.3712" fill="#F2F0F4"/>
<g filter="url(#filter0_dd)">
<path d="M86.3366 18.3074C84.6217 19.762 84.2542 20.4373 84.2542 22.3595C84.2542 24.5933 85.2954 26.4634 87.5003 27.97C88.5415 28.6973 88.4803 29.0609 86.0916 35.9182C84.7442 39.8663 83.6417 43.1391 83.6417 43.243C83.6417 43.3469 81.988 43.5547 79.9669 43.7105C75.6183 44.0222 72.8009 45.3729 70.4735 48.2301C66.5536 53.0094 68.5135 60.3862 74.5771 63.5551C75.4958 64.0226 75.1895 64.9577 72.0659 72.1267L68.5135 80.1788L65.6349 80.5425C64.0424 80.7503 62.205 81.2697 61.5313 81.7373C60.3063 82.7243 60.6126 82.8802 50.8129 76.1787L46.4644 73.2176L46.7706 70.6202C47.0156 68.2305 46.8931 67.8669 45.1782 66.4123C40.8296 62.7239 33.2961 65.8409 34.2148 70.9319C34.9498 74.7242 39.3596 76.6982 43.2795 75.0359L45.3006 74.2047L48.9755 76.6463C59.2039 83.3477 59.1426 83.2438 58.7751 84.3347C57.8564 86.9322 57.9177 88.5946 58.9589 90.3089C61.0413 93.6856 65.7574 95.348 69.126 93.8934C71.6372 92.8025 73.8421 90.6206 74.2096 88.8543C74.7608 86.4647 73.5358 83.1919 71.6984 82.2048C70.8409 81.7373 70.1672 81.1139 70.1672 80.7503C70.1672 80.4386 71.6984 76.6463 73.5971 72.2826L77.027 64.3863L79.5994 64.646C82.968 65.0616 87.2553 63.5032 90.0727 60.9057L92.0939 59.0355L100.24 62.1005L108.325 65.1655L108.447 67.6071C108.937 76.958 124.678 76.4385 124.678 67.0357C124.678 65.2175 121.922 61.9966 119.717 61.2174C117.144 60.2823 113.224 60.8537 111.264 62.4642C110.346 63.1915 109.366 63.8148 109.121 63.8148C108.815 63.8148 105.017 62.4642 100.669 60.8537L92.7064 57.9446L93.0739 55.8147C93.8701 51.451 91.1752 47.1392 85.9691 44.3339C85.1117 43.8664 85.2342 42.9833 87.5003 36.3338L90.0727 28.8531L92.0939 28.6972C101.159 27.8661 100.301 16.5412 91.1752 16.5412C88.8478 16.5412 88.1128 16.8009 86.3366 18.3074Z" fill="#1D1534"/>
</g>
<path d="M73.8401 31.651C66.7124 33.3471 60.0038 37.7672 56.5298 42.9582C51.9177 49.794 51.6781 58.8397 55.9308 65.9839C57.0689 67.9369 63.418 74.1045 64.2566 74.1045C64.7956 74.1045 67.8504 67.5771 67.8504 66.4978C67.8504 66.1894 66.892 64.8531 65.754 63.5682C58.3866 55.2934 63.4779 43.2152 75.7569 39.7717L78.7517 38.8979L80.1294 34.889L81.4471 30.9315L78.9913 30.9829C77.6137 30.9829 75.3376 31.2912 73.8401 31.651Z" fill="#E43A19"/>
<path d="M93.3964 38.0961L92.0508 42.1889L94.157 44.2353C96.8482 46.7933 98.5448 50.2211 98.5448 53.0349V55.1836L103.225 57.0254L107.847 58.8672L108.256 56.5138C108.783 53.5977 107.32 47.4584 105.214 43.7237C103.693 41.0122 98.1938 35.6404 95.9121 34.5149C94.8005 34.0033 94.625 34.2591 93.3964 38.0961Z" fill="#E43A19"/>
<path d="M91.563 67.0209C88.8384 68.5553 86.4771 69.3737 83.3892 69.7828C81.3912 70.0897 81.149 70.2943 79.9381 73.2608C79.2115 75.051 78.4244 76.8922 78.2428 77.3526C77.3346 79.2961 87.2037 78.1709 93.3794 75.6647C97.1938 74.0792 102.946 70.2943 102.643 69.5271C102.522 69.2714 100.524 68.2996 98.2231 67.3789L93.9243 65.64L91.563 67.0209Z" fill="#E43A19"/>
<g filter="url(#filter1_dd)">
<path d="M86.3366 18.3074C84.6217 19.762 84.2542 20.4373 84.2542 22.3595C84.2542 24.5933 85.2954 26.4634 87.5003 27.97C88.5415 28.6973 88.4803 29.0609 86.0916 35.9182C84.7442 39.8663 83.6417 43.1391 83.6417 43.243C83.6417 43.3469 81.988 43.5547 79.9669 43.7105C75.6183 44.0222 72.8009 45.3729 70.4735 48.2301C66.5536 53.0094 68.5135 60.3862 74.5771 63.5551C75.4958 64.0226 75.1895 64.9577 72.0659 72.1267L68.5135 80.1788L65.6349 80.5425C64.0424 80.7503 62.205 81.2697 61.5313 81.7373C60.3063 82.7243 60.6126 82.8802 50.8129 76.1787L46.4644 73.2176L46.7706 70.6202C47.0156 68.2305 46.8931 67.8669 45.1782 66.4123C40.8296 62.7239 33.2961 65.8409 34.2148 70.9319C34.9498 74.7242 39.3596 76.6982 43.2795 75.0359L45.3006 74.2047L48.9755 76.6463C59.2039 83.3477 59.1426 83.2438 58.7751 84.3347C57.8564 86.9322 57.9177 88.5946 58.9589 90.3089C61.0413 93.6856 65.7574 95.348 69.126 93.8934C71.6372 92.8025 73.8421 90.6206 74.2096 88.8543C74.7608 86.4647 73.5358 83.1919 71.6984 82.2048C70.8409 81.7373 70.1672 81.1139 70.1672 80.7503C70.1672 80.4386 71.6984 76.6463 73.5971 72.2826L77.027 64.3863L79.5994 64.646C82.968 65.0616 87.2553 63.5032 90.0727 60.9057L92.0939 59.0355L100.24 62.1005L108.325 65.1655L108.447 67.6071C108.937 76.958 124.678 76.4385 124.678 67.0357C124.678 65.2175 121.922 61.9966 119.717 61.2174C117.144 60.2823 113.224 60.8537 111.264 62.4642C110.346 63.1915 109.366 63.8148 109.121 63.8148C108.815 63.8148 105.017 62.4642 100.669 60.8537L92.7064 57.9446L93.0739 55.8147C93.8701 51.451 91.1752 47.1392 85.9691 44.3339C85.1117 43.8664 85.2342 42.9833 87.5003 36.3338L90.0727 28.8531L92.0939 28.6972C101.159 27.8661 100.301 16.5412 91.1752 16.5412C88.8478 16.5412 88.1128 16.8009 86.3366 18.3074Z" fill="#1D1534"/>
</g>
<path d="M73.8401 31.651C66.7124 33.3471 60.0038 37.7672 56.5298 42.9582C51.9177 49.794 51.6781 58.8397 55.9308 65.9839C57.0689 67.9369 63.418 74.1045 64.2566 74.1045C64.7956 74.1045 67.8504 67.5771 67.8504 66.4978C67.8504 66.1894 66.892 64.8531 65.754 63.5682C58.3866 55.2934 63.4779 43.2152 75.7569 39.7717L78.7517 38.8979L80.1294 34.889L81.4471 30.9315L78.9913 30.9829C77.6137 30.9829 75.3376 31.2912 73.8401 31.651Z" fill="#E43A19"/>
<path d="M93.3964 38.0961L92.0508 42.1889L94.157 44.2353C96.8482 46.7933 98.5448 50.2211 98.5448 53.0349V55.1836L103.225 57.0254L107.847 58.8672L108.256 56.5138C108.783 53.5977 107.32 47.4584 105.214 43.7237C103.693 41.0122 98.1938 35.6404 95.9121 34.5149C94.8005 34.0033 94.625 34.2591 93.3964 38.0961Z" fill="#E43A19"/>
<path d="M91.563 67.0209C88.8384 68.5553 86.4771 69.3737 83.3892 69.7828C81.3912 70.0897 81.149 70.2943 79.9381 73.2608C79.2115 75.051 78.4244 76.8922 78.2428 77.3526C77.3346 79.2961 87.2037 78.1709 93.3794 75.6647C97.1938 74.0792 102.946 70.2943 102.643 69.5271C102.522 69.2714 100.524 68.2996 98.2231 67.3789L93.9243 65.64L91.563 67.0209Z" fill="#E43A19"/>
<path d="M96.7606 108.212C95.1862 109.297 94.046 111.54 93.0688 115.339C91.3314 121.887 92.5802 125.65 96.0548 124.42C97.9551 123.732 98.7694 120.187 97.4664 118.233C97.195 117.799 97.575 117.618 99.1495 117.329C100.724 117.075 101.267 116.786 101.375 116.099C101.538 115.411 101.43 115.303 100.833 115.628C99.8553 116.135 97.7379 116.46 96.8149 116.207C96.1091 116.026 96.1091 115.918 96.8149 115.411C97.2493 115.086 98.3351 113.819 99.3124 112.589C101.484 109.731 101.484 107.669 99.3124 107.488C98.3894 107.416 97.5207 107.669 96.7606 108.212ZM99.3124 109.406C99.3124 110.129 96.0548 114.434 95.6748 114.181C95.349 113.928 97.0864 109.912 97.7922 109.297C98.5523 108.682 99.3124 108.754 99.3124 109.406ZM95.7834 118.884C96.2177 120.44 96.2177 120.585 96.1091 121.96C96.0548 122.611 95.7291 122.973 95.2405 122.973C94.589 122.973 94.4261 122.43 94.4261 120.259C94.4261 117.401 95.2405 116.605 95.7834 118.884Z" fill="#1D1534"/>
<path d="M54.8483 108.632C52.5928 109.181 51.8584 110.535 54.009 110.132C54.7434 110.023 55.3728 110.023 55.3728 110.132C55.3728 110.279 54.6385 112.401 53.7468 114.889C52.1731 119.243 52.0682 119.426 50.5995 119.645C47.5572 120.048 49.0784 120.597 53.2747 120.597C57.3136 120.597 58.8348 120.121 56.2645 119.682L55.0057 119.462L56.6842 114.633C58.2578 109.986 58.3627 109.803 59.7265 109.693C61.4575 109.547 61.6148 108.705 59.9888 108.376C58.2578 108.083 56.9464 108.12 54.8483 108.632Z" fill="#1D1534"/>
<path d="M63.9534 108.627C61.6629 109.336 60.6812 110.193 60.6267 111.498C60.6267 112.803 61.2811 112.841 62.2628 111.647C63.6262 109.895 69.0253 109.224 71.8067 110.454C74.6426 111.722 74.8607 114.295 72.3521 117.24C70.9341 118.881 67.771 120.223 66.244 119.85C65.5895 119.664 65.4805 119.216 65.8077 117.539C66.0258 116.383 66.4621 114.668 66.8439 113.698C67.2256 112.766 67.6619 111.722 67.771 111.424C67.8801 111.088 67.5528 110.827 66.8439 110.753C65.0987 110.566 63.7898 113.102 63.4626 117.24C63.2445 120.559 63.2445 120.633 64.4988 120.857C68.8072 121.64 72.8974 120.26 75.0243 117.315C77.533 113.885 76.6604 110.231 73.1156 108.963C70.6614 108.105 66.1894 107.919 63.9534 108.627Z" fill="#1D1534"/>
<path d="M80.565 114.413C80.2565 114.706 79.7424 115.73 79.434 116.79C78.8684 118.399 78.9198 118.765 79.691 119.606C80.4622 120.447 80.8735 120.557 82.2102 120.374L83.8554 120.154L81.439 121.873C78.817 123.811 77.943 124.835 77.943 125.968C77.943 126.919 80.1023 127.358 81.8503 126.773C83.1356 126.371 85.6548 123.153 85.6548 121.873C85.6548 121.544 85.8091 121.251 86.0661 121.251C86.2718 121.251 87.3 120.703 88.3797 120.045C89.8192 119.167 90.2819 118.692 89.9735 118.216C89.665 117.631 89.4594 117.668 87.917 118.728C85.9633 120.081 85.9119 119.935 86.7859 116.644C87.0944 115.364 87.2486 114.23 87.0944 114.121C86.3746 113.609 85.0893 114.523 84.6266 115.912C83.804 118.253 83.187 119.057 82.2616 119.057C81.5419 119.057 81.439 118.801 81.6961 117.302C81.9017 116.351 82.1588 115.218 82.3645 114.742C82.7243 113.828 81.5419 113.609 80.565 114.413ZM82.313 124.359C81.7475 125.164 81.0791 125.639 80.4108 125.639C79.3311 125.639 79.434 125.42 81.439 123.482C83.0328 121.983 83.4955 122.495 82.313 124.359Z" fill="#1D1534"/>
<path d="M104.436 114.692C103.396 115.828 102.876 117.879 103.344 119.125C103.708 120.224 105.841 120.773 107.037 120.077C108.858 119.015 107.61 120.443 105.425 121.909C101.367 124.693 100.743 127.037 104.124 127.037C106.153 127.037 108.182 125.499 109.118 123.264C109.69 121.945 110.471 121.066 111.979 120.187C113.176 119.454 114.06 118.612 114.06 118.136C114.06 117.44 113.904 117.476 112.239 118.612L110.419 119.857V118.758C110.419 118.172 110.679 117 110.939 116.121C112.031 112.861 109.586 113.373 108.338 116.634C107.766 118.209 107.298 118.832 106.569 118.905C105.685 119.051 105.581 118.868 105.893 117.11C106.049 116.011 106.257 114.912 106.361 114.619C106.673 113.74 105.321 113.776 104.436 114.692ZM106.465 123.997C105.529 125.279 103.656 126.121 103.656 125.242C103.656 124.766 106.829 122.202 107.141 122.422C107.298 122.531 106.985 123.227 106.465 123.997Z" fill="#1D1534"/>
<defs>
<filter id="filter0_dd" x="30.1379" y="16.541" width="98.5397" height="85.8807" filterUnits="userSpaceOnUse" color-interpolation-filters="sRGB">
<feFlood flood-opacity="0" result="BackgroundImageFix"/>
<feColorMatrix in="SourceAlpha" type="matrix" values="0 0 0 0 0 0 0 0 0 0 0 0 0 0 0 0 0 0 127 0" result="hardAlpha"/>
<feOffset dy="4"/>
<feGaussianBlur stdDeviation="2"/>
<feColorMatrix type="matrix" values="0 0 0 0 0 0 0 0 0 0 0 0 0 0 0 0 0 0 0.25 0"/>
<feBlend mode="normal" in2="BackgroundImageFix" result="effect1_dropShadow"/>
<feColorMatrix in="SourceAlpha" type="matrix" values="0 0 0 0 0 0 0 0 0 0 0 0 0 0 0 0 0 0 127 0" result="hardAlpha"/>
<feOffset dy="4"/>
<feGaussianBlur stdDeviation="2"/>
<feColorMatrix type="matrix" values="0 0 0 0 0 0 0 0 0 0 0 0 0 0 0 0 0 0 0.25 0"/>
<feBlend mode="normal" in2="effect1_dropShadow" result="effect2_dropShadow"/>
<feBlend mode="normal" in="SourceGraphic" in2="effect2_dropShadow" result="shape"/>
</filter>
<filter id="filter1_dd" x="30.1379" y="16.541" width="98.5397" height="85.8807" filterUnits="userSpaceOnUse" color-interpolation-filters="sRGB">
<feFlood flood-opacity="0" result="BackgroundImageFix"/>
<feColorMatrix in="SourceAlpha" type="matrix" values="0 0 0 0 0 0 0 0 0 0 0 0 0 0 0 0 0 0 127 0" result="hardAlpha"/>
<feOffset dy="4"/>
<feGaussianBlur stdDeviation="2"/>
<feColorMatrix type="matrix" values="0 0 0 0 0 0 0 0 0 0 0 0 0 0 0 0 0 0 0.25 0"/>
<feBlend mode="normal" in2="BackgroundImageFix" result="effect1_dropShadow"/>
<feColorMatrix in="SourceAlpha" type="matrix" values="0 0 0 0 0 0 0 0 0 0 0 0 0 0 0 0 0 0 127 0" result="hardAlpha"/>
<feOffset dy="4"/>
<feGaussianBlur stdDeviation="2"/>
<feColorMatrix type="matrix" values="0 0 0 0 0 0 0 0 0 0 0 0 0 0 0 0 0 0 0.25 0"/>
<feBlend mode="normal" in2="effect1_dropShadow" result="effect2_dropShadow"/>
<feBlend mode="normal" in="SourceGraphic" in2="effect2_dropShadow" result="shape"/>
</filter>
</defs>
</svg>
