<svg width="128" height="53" viewBox="0 0 128 53" fill="none" xmlns="http://www.w3.org/2000/svg">
<path d="M93.7903 1.97541C90.6939 4.89047 88.4518 10.9149 86.5299 21.1176C83.1133 38.7051 85.569 48.8106 92.4023 45.5069C96.1392 43.6607 97.7407 34.1382 95.1783 28.8911C94.6444 27.7251 95.3918 27.2392 98.4881 26.4619C101.584 25.7817 102.652 25.0043 102.866 23.1581C103.186 21.3119 102.972 21.0204 101.798 21.8949C99.8761 23.2553 95.7121 24.1298 93.897 23.4496C92.509 22.9638 92.509 22.6723 93.897 21.3119C94.7512 20.4374 96.8866 17.0365 98.8084 13.7328C103.079 6.05649 103.079 0.517887 98.8084 0.0320473C96.9934 -0.162292 95.285 0.517887 93.7903 1.97541ZM98.8084 5.18197C98.8084 7.12534 92.4023 18.6884 91.6549 18.0082C91.0142 17.328 94.4309 6.54233 95.8189 4.89047C97.3137 3.23861 98.8084 3.43294 98.8084 5.18197ZM91.8684 30.6401C92.7226 34.8183 92.7226 35.207 92.509 38.8994C92.4023 40.6485 91.7616 41.6201 90.8007 41.6201C89.5195 41.6201 89.1992 40.1626 89.1992 34.3325C89.1992 26.6562 90.8007 24.5185 91.8684 30.6401Z" fill="#E5D7FF"/>
<path d="M11.5794 3.32495C7.11356 4.79634 5.65957 8.42579 9.91769 7.34676C11.3717 7.05248 12.618 7.05248 12.618 7.34676C12.618 7.73913 11.164 13.4285 9.39841 20.0989C6.28271 31.7719 6.075 32.2624 3.16701 32.8509C-2.85668 33.93 0.155165 35.4014 8.4637 35.4014C16.4607 35.4014 19.4725 34.1262 14.3835 32.949L11.891 32.3605L15.2144 19.4122C18.3301 6.95439 18.5378 6.46392 21.2381 6.16965C24.6653 5.77727 24.9769 3.52113 21.7574 2.6383C18.3301 1.85355 15.7337 1.95164 11.5794 3.32495Z" fill="#E5D7FF"/>
<path d="M29.5139 3.30676C25.0289 5.19467 23.1068 7.48005 23 10.9578C23 14.4355 24.2814 14.5349 26.2036 11.3552C28.8732 6.68514 39.4449 4.89658 44.891 8.1756C50.4438 11.554 50.8709 18.4101 45.9588 26.2599C43.1824 30.6319 36.9889 34.209 33.9989 33.2153C32.7175 32.7185 32.5039 31.5262 33.1446 27.0548C33.5717 23.9745 34.426 19.4037 35.1735 16.8203C35.921 14.3362 36.7753 11.554 36.9889 10.7591C37.2024 9.86478 36.5617 9.16924 35.1735 8.97051C31.7564 8.47369 29.1935 15.2304 28.5528 26.2599C28.1257 35.1033 28.1257 35.302 30.5817 35.8982C39.0178 37.9848 47.0267 34.3083 51.1913 26.4586C56.1034 17.3171 54.3948 7.57941 47.4538 4.20103C42.6485 1.91566 33.8921 1.41884 29.5139 3.30676Z" fill="#E5D7FF"/>
<path d="M62.1915 18.5036C61.5808 19.293 60.5628 22.0557 59.952 24.9171C58.8323 29.2585 58.9341 30.2452 60.461 32.5146C61.9879 34.7839 62.8023 35.0799 65.4489 34.5866L68.7064 33.9946L63.922 38.632C58.7305 43.8614 57 46.6241 57 49.6829C57 52.2482 61.2754 53.4323 64.7364 51.8536C67.2812 50.7682 72.2692 42.0854 72.2692 38.632C72.2692 37.744 72.5746 36.9546 73.0835 36.9546C73.4907 36.9546 75.5266 35.4746 77.6643 33.6986C80.5145 31.3305 81.4307 30.0478 80.8199 28.7652C80.2091 27.1865 79.802 27.2851 76.7481 30.1465C72.8799 33.7972 72.7781 33.4026 74.5086 24.5224C75.1194 21.069 75.4248 18.0103 75.1194 17.7143C73.6943 16.3329 71.1494 18.7997 70.2333 22.5491C68.6046 28.8638 67.383 31.0345 65.5507 31.0345C64.1256 31.0345 63.922 30.3439 64.431 26.2984C64.8382 23.7331 65.3471 20.6744 65.7543 19.3917C66.4669 16.925 64.1256 16.3329 62.1915 18.5036ZM65.6525 45.3414C64.5328 47.5122 63.2095 48.7948 61.8861 48.7948C59.7485 48.7948 59.952 48.2028 63.922 42.9734C67.0777 38.928 67.9938 40.3094 65.6525 45.3414Z" fill="#E5D7FF"/>
<path d="M108.946 19.2564C106.886 22.3205 105.856 27.8557 106.783 31.2164C107.504 34.1817 111.727 35.6643 114.096 33.7863C117.7 30.9199 115.229 34.7747 110.903 38.7284C102.869 46.2405 101.633 52.5664 108.328 52.5664C112.345 52.5664 116.361 48.415 118.215 42.3856C119.348 38.8273 120.893 36.455 123.88 34.0828C126.249 32.106 128 29.8326 128 28.5476C128 26.6696 127.691 26.7685 124.395 29.8326L120.79 33.1932V30.228C120.79 28.6465 121.305 25.4835 121.82 23.1113C123.983 14.3143 119.142 15.6981 116.67 24.4951C115.538 28.7453 114.611 30.4256 113.169 30.6233C111.418 31.0187 111.212 30.5245 111.83 25.78C112.139 22.8148 112.551 19.8495 112.757 19.0587C113.375 16.6865 110.697 16.7853 108.946 19.2564ZM112.963 44.3625C111.109 47.822 107.401 50.0953 107.401 47.7231C107.401 46.4382 113.684 39.5192 114.302 40.1122C114.611 40.4088 113.993 42.2868 112.963 44.3625Z" fill="#E5D7FF"/>
</svg>
