<svg width="128" height="38" viewBox="0 0 128 54" fill="none" xmlns="http://www.w3.org/2000/svg">
<path d="M93.7903 2.74104C90.6939 5.65609 88.4518 11.6805 86.5299 21.8832C83.1133 39.4707 85.569 49.5762 92.4023 46.2725C96.1392 44.4263 97.7407 34.9038 95.1783 29.6567C94.6444 28.4907 95.3918 28.0048 98.4881 27.2275C101.584 26.5473 102.652 25.77 102.866 23.9238C103.186 22.0776 102.972 21.7861 101.798 22.6606C99.8761 24.0209 95.7121 24.8954 93.897 24.2153C92.509 23.7294 92.509 23.4379 93.897 22.0776C94.7512 21.203 96.8866 17.8021 98.8084 14.4984C103.079 6.82211 103.079 1.28351 98.8084 0.797672C96.9934 0.603333 95.285 1.28351 93.7903 2.74104ZM98.8084 5.9476C98.8084 7.89097 92.4023 19.454 91.6549 18.7738C91.0142 18.0937 94.4309 7.30796 95.8189 5.65609C97.3137 4.00423 98.8084 4.19857 98.8084 5.9476ZM91.8684 31.4057C92.7226 35.584 92.7226 35.9726 92.509 39.665C92.4023 41.4141 91.7616 42.3858 90.8007 42.3858C89.5195 42.3858 89.1992 40.9282 89.1992 35.0981C89.1992 27.4218 90.8007 25.2841 91.8684 31.4057Z" fill="#111F4D"/>
<path d="M11.5794 4.09057C7.11356 5.56197 5.65957 9.19141 9.91769 8.11239C11.3717 7.81811 12.618 7.81811 12.618 8.11239C12.618 8.50476 11.164 14.1942 9.39841 20.8645C6.28271 32.5376 6.075 33.028 3.16701 33.6166C-2.85668 34.6956 0.155165 36.167 8.4637 36.167C16.4607 36.167 19.4725 34.8918 14.3835 33.7147L11.891 33.1261L15.2144 20.1778C18.3301 7.72001 18.5378 7.22955 21.2381 6.93527C24.6653 6.5429 24.9769 4.28676 21.7574 3.40392C18.3301 2.61918 15.7337 2.71727 11.5794 4.09057Z" fill="#111F4D"/>
<path d="M29.5139 4.07238C25.0289 5.9603 23.1068 8.24567 23 11.7234C23 15.2012 24.2814 15.3005 26.2036 12.1209C28.8732 7.45076 39.4449 5.66221 44.891 8.94122C50.4438 12.3196 50.8709 19.1757 45.9588 27.0255C43.1824 31.3975 36.9889 34.9746 33.9989 33.981C32.7175 33.4841 32.5039 32.2918 33.1446 27.8204C33.5717 24.7401 34.426 20.1694 35.1735 17.5859C35.921 15.1018 36.7753 12.3196 36.9889 11.5247C37.2024 10.6304 36.5617 9.93486 35.1735 9.73613C31.7564 9.23931 29.1935 15.9961 28.5528 27.0255C28.1257 35.8689 28.1257 36.0676 30.5817 36.6638C39.0178 38.7504 47.0267 35.074 51.1913 27.2242C56.1034 18.0827 54.3948 8.34504 47.4538 4.96666C42.6485 2.68129 33.8921 2.18446 29.5139 4.07238Z" fill="#111F4D"/>
<path d="M62.1915 19.2693C61.5808 20.0586 60.5628 22.8213 59.952 25.6827C58.8323 30.0241 58.9341 31.0108 60.461 33.2802C61.9879 35.5496 62.8023 35.8456 65.4489 35.3522L68.7064 34.7602L63.922 39.3976C58.7305 44.627 57 47.3898 57 50.4485C57 53.0139 61.2754 54.1979 64.7364 52.6192C67.2812 51.5338 72.2692 42.851 72.2692 39.3976C72.2692 38.5096 72.5746 37.7203 73.0835 37.7203C73.4907 37.7203 75.5266 36.2402 77.6643 34.4642C80.5145 32.0962 81.4307 30.8135 80.8199 29.5308C80.2091 27.9521 79.802 28.0508 76.7481 30.9121C72.8799 34.5629 72.7781 34.1682 74.5086 25.288C75.1194 21.8347 75.4248 18.7759 75.1194 18.4799C73.6943 17.0986 71.1494 19.5653 70.2333 23.3147C68.6046 29.6295 67.383 31.8002 65.5507 31.8002C64.1256 31.8002 63.922 31.1095 64.431 27.0641C64.8382 24.4987 65.3471 21.44 65.7543 20.1573C66.4669 17.6906 64.1256 17.0986 62.1915 19.2693ZM65.6525 46.1071C64.5328 48.2778 63.2095 49.5605 61.8861 49.5605C59.7485 49.5605 59.952 48.9685 63.922 43.739C67.0777 39.6936 67.9938 41.075 65.6525 46.1071Z" fill="#111F4D"/>
<path d="M108.946 20.022C106.886 23.0862 105.856 28.6214 106.783 31.982C107.504 34.9473 111.727 36.4299 114.096 34.5519C117.7 31.6855 115.229 35.5403 110.903 39.4941C102.869 47.0061 101.633 53.332 108.328 53.332C112.345 53.332 116.361 49.1806 118.215 43.1512C119.348 39.5929 120.893 37.2207 123.88 34.8484C126.249 32.8716 128 30.5982 128 29.3133C128 27.4352 127.691 27.5341 124.395 30.5982L120.79 33.9589V30.9936C120.79 29.4121 121.305 26.2491 121.82 23.8769C123.983 15.0799 119.142 16.4637 116.67 25.2607C115.538 29.5109 114.611 31.1913 113.169 31.389C111.418 31.7843 111.212 31.2901 111.83 26.5457C112.139 23.5804 112.551 20.6151 112.757 19.8244C113.375 17.4521 110.697 17.551 108.946 20.022ZM112.963 45.1281C111.109 48.5876 107.401 50.861 107.401 48.4887C107.401 47.2038 113.684 40.2848 114.302 40.8779C114.611 41.1744 113.993 43.0524 112.963 45.1281Z" fill="#111F4D"/>
</svg>
