<svg width="24" height="24" viewBox="0 0 24 24" fill="none" xmlns="http://www.w3.org/2000/svg">
<path opacity="0.1" fill-rule="evenodd" clip-rule="evenodd" d="M0 12C0 5.37258 5.37258 0 12 0C18.6274 0 24 5.37258 24 12C24 18.6274 18.6274 24 12 24C5.37258 24 0 18.6274 0 12Z" fill="white"/>
<path fill-rule="evenodd" clip-rule="evenodd" d="M12.0006 5.59961C10.2624 5.59961 10.0443 5.60721 9.36164 5.63828C8.6803 5.66948 8.21523 5.77734 7.80829 5.93561C7.38735 6.09908 7.03028 6.31775 6.67454 6.67362C6.31854 7.02936 6.09987 7.38643 5.93587 7.80723C5.7772 8.2143 5.6692 8.67951 5.63853 9.36058C5.608 10.0433 5.6 10.2615 5.6 11.9997C5.6 13.7378 5.60773 13.9553 5.63867 14.638C5.67 15.3193 5.77787 15.7844 5.936 16.1913C6.0996 16.6123 6.31827 16.9693 6.67414 17.3251C7.02975 17.6811 7.38682 17.9003 7.80749 18.0637C8.21469 18.222 8.6799 18.3299 9.3611 18.3611C10.0438 18.3921 10.2618 18.3997 11.9998 18.3997C13.7381 18.3997 13.9556 18.3921 14.6382 18.3611C15.3196 18.3299 15.7852 18.222 16.1924 18.0637C16.6132 17.9003 16.9697 17.6811 17.3253 17.3251C17.6813 16.9693 17.9 16.6123 18.064 16.1915C18.2213 15.7844 18.3293 15.3192 18.3613 14.6381C18.392 13.9554 18.4 13.7378 18.4 11.9997C18.4 10.2615 18.392 10.0434 18.3613 9.36071C18.3293 8.67937 18.2213 8.2143 18.064 7.80737C17.9 7.38643 17.6813 7.02936 17.3253 6.67362C16.9693 6.31762 16.6133 6.09895 16.192 5.93561C15.784 5.77734 15.3186 5.66948 14.6373 5.63828C13.9546 5.60721 13.7373 5.59961 11.9986 5.59961H12.0006ZM11.4264 6.75294C11.5968 6.75267 11.787 6.75294 12.0006 6.75294C13.7094 6.75294 13.9119 6.75907 14.5867 6.78974C15.2107 6.81827 15.5494 6.92254 15.775 7.01014C16.0737 7.12614 16.2866 7.26481 16.5105 7.48881C16.7345 7.71281 16.8732 7.92615 16.9894 8.22482C17.077 8.45015 17.1814 8.78882 17.2098 9.41283C17.2405 10.0875 17.2472 10.2902 17.2472 11.9982C17.2472 13.7062 17.2405 13.9089 17.2098 14.5836C17.1813 15.2076 17.077 15.5462 16.9894 15.7716C16.8734 16.0702 16.7345 16.2829 16.5105 16.5068C16.2865 16.7308 16.0738 16.8694 15.775 16.9854C15.5497 17.0734 15.2107 17.1774 14.5867 17.206C13.9121 17.2366 13.7094 17.2433 12.0006 17.2433C10.2916 17.2433 10.0891 17.2366 9.41441 17.206C8.7904 17.1772 8.45173 17.0729 8.226 16.9853C7.92733 16.8693 7.71399 16.7306 7.48999 16.5066C7.26599 16.2826 7.12732 16.0698 7.01105 15.771C6.92345 15.5457 6.81905 15.207 6.79065 14.583C6.75998 13.9083 6.75385 13.7057 6.75385 11.9966C6.75385 10.2875 6.75998 10.0859 6.79065 9.41123C6.81918 8.78722 6.92345 8.44855 7.01105 8.22295C7.12705 7.92428 7.26599 7.71095 7.48999 7.48694C7.71399 7.26294 7.92733 7.12427 8.226 7.00801C8.4516 6.92001 8.7904 6.816 9.41441 6.78734C10.0048 6.76067 10.2336 6.75267 11.4264 6.75134V6.75294ZM15.4169 7.81562C14.9929 7.81562 14.6489 8.15922 14.6489 8.58336C14.6489 9.00736 14.9929 9.35137 15.4169 9.35137C15.8409 9.35137 16.1849 9.00736 16.1849 8.58336C16.1849 8.15935 15.8409 7.81562 15.4169 7.81562ZM12.0006 8.71296C10.1855 8.71296 8.71391 10.1846 8.71391 11.9997C8.71391 13.8147 10.1855 15.2857 12.0006 15.2857C13.8157 15.2857 15.2868 13.8147 15.2868 11.9997C15.2868 10.1846 13.8157 8.71296 12.0006 8.71296ZM12.0006 9.8663C13.1787 9.8663 14.1339 10.8214 14.1339 11.9997C14.1339 13.1778 13.1787 14.133 12.0006 14.133C10.8223 14.133 9.86723 13.1778 9.86723 11.9997C9.86723 10.8214 10.8223 9.8663 12.0006 9.8663Z" fill="#F2F4F7"/>
</svg>
