<svg width="280" height="100" viewBox="0 0 280 100" fill="none" xmlns="http://www.w3.org/2000/svg">
<g filter="url(#filter0_dd_839_2196)">
<path d="M67.9946 2.08649C65.8921 3.80477 65.4416 4.60254 65.4416 6.87312C65.4416 9.51191 66.7181 11.7211 69.4213 13.5008C70.6978 14.3599 70.6227 14.7895 67.6942 22.8899C66.0423 27.5539 64.6907 31.42 64.6907 31.5427C64.6907 31.6655 62.6633 31.9109 60.1854 32.095C54.8541 32.4632 51.4 34.0588 48.5467 37.434C43.741 43.0797 46.1438 51.7939 53.5776 55.5373C54.7039 56.0896 54.3285 57.1942 50.499 65.6629L46.1438 75.1748L42.6147 75.6043C40.6624 75.8498 38.4097 76.4635 37.5837 77.0158C36.082 78.1818 36.4574 78.3659 24.4432 70.4495L19.112 66.9516L19.4874 63.8832C19.7878 61.0603 19.6376 60.6308 17.5351 58.9125C12.2038 54.5554 2.96792 58.2374 4.09425 64.2514C4.99531 68.7312 10.4017 71.0632 15.2074 69.0994L17.6853 68.1175L22.1906 71.0018C34.7304 78.9182 34.6553 78.7954 34.2048 80.0841C33.0784 83.1525 33.1535 85.1162 34.43 87.1414C36.983 91.1302 42.7648 93.094 46.8947 91.3757C49.9733 90.087 52.6765 87.5096 53.1271 85.4231C53.8029 82.6002 52.3011 78.7341 50.0484 77.5681C48.9972 77.0158 48.1712 76.2794 48.1712 75.8498C48.1712 75.4816 50.0484 71.0018 52.3762 65.847L56.5811 56.5191L59.7348 56.826C63.8647 57.3169 69.1209 55.4759 72.575 52.4076L75.0529 50.1983L85.0397 53.819L94.9514 57.4397L95.1015 60.3239C95.7023 71.37 115 70.7563 115 59.6489C115 57.501 111.621 53.6963 108.918 52.7758C105.764 51.6711 100.958 52.3462 98.5556 54.2486C97.4293 55.1077 96.2279 55.8441 95.9275 55.8441C95.5521 55.8441 90.8966 54.2486 85.5653 52.3462L75.8038 48.9096L76.2543 46.3936C77.2305 41.2387 73.9266 36.1453 67.5441 32.8314C66.4928 32.2791 66.643 31.2359 69.4213 23.3809L72.575 14.544L75.0529 14.3599C86.166 13.378 85.1148 0 73.9266 0C71.0732 0 70.1722 0.306839 67.9946 2.08649Z" fill="#111F4D"/>
</g>
<path d="M52.674 17.85C43.9355 19.8536 35.7109 25.075 31.4518 31.2071C25.7975 39.2821 25.5037 49.9679 30.7175 58.4071C32.1127 60.7143 39.8966 68 40.9247 68C41.5856 68 45.3307 60.2893 45.3307 59.0143C45.3307 58.65 44.1558 57.0714 42.7605 55.5536C33.7282 45.7786 39.9701 31.5107 55.0239 27.4429L58.6955 26.4107L60.3845 21.675L62 17L58.9892 17.0607C57.3003 17.0607 54.5098 17.425 52.674 17.85Z" fill="#E43A19"/>
<path d="M76.6497 25.4632L75 30.2981L77.5821 32.7155C80.8814 35.7372 82.9614 39.7864 82.9614 43.1104V45.6487L88.6994 47.8243L94.3657 50L94.8677 47.22C95.5133 43.7752 93.7201 36.5229 91.1381 32.1111C89.2732 28.908 82.5311 22.5623 79.7338 21.2328C78.3711 20.6284 78.1559 20.9306 76.6497 25.4632Z" fill="#E43A19"/>
<path d="M74.4021 59.6313C71.0618 61.4439 68.1669 62.4106 64.3812 62.894C61.9317 63.2565 61.6347 63.4982 60.1502 67.0025C59.2594 69.1172 58.2944 71.2923 58.0718 71.836C56.9583 74.132 69.0576 72.8027 76.6289 69.8422C81.3053 67.9692 88.3571 63.4982 87.9859 62.5919C87.8375 62.2898 85.3879 61.1418 82.5672 60.0543L77.297 58L74.4021 59.6313Z" fill="#E43A19"/>
<g filter="url(#filter1_dd_839_2196)">
<path d="M67.9946 2.08649C65.8921 3.80477 65.4416 4.60254 65.4416 6.87312C65.4416 9.51191 66.7181 11.7211 69.4213 13.5008C70.6978 14.3599 70.6227 14.7895 67.6942 22.8899C66.0423 27.5539 64.6907 31.42 64.6907 31.5427C64.6907 31.6655 62.6633 31.9109 60.1854 32.095C54.8541 32.4632 51.4 34.0588 48.5467 37.434C43.741 43.0797 46.1438 51.7939 53.5776 55.5373C54.7039 56.0896 54.3285 57.1942 50.499 65.6629L46.1438 75.1748L42.6147 75.6043C40.6624 75.8498 38.4097 76.4635 37.5837 77.0158C36.082 78.1818 36.4574 78.3659 24.4432 70.4495L19.112 66.9516L19.4874 63.8832C19.7878 61.0603 19.6376 60.6308 17.5351 58.9125C12.2038 54.5554 2.96792 58.2374 4.09425 64.2514C4.99531 68.7312 10.4017 71.0632 15.2074 69.0994L17.6853 68.1175L22.1906 71.0018C34.7304 78.9182 34.6553 78.7954 34.2048 80.0841C33.0784 83.1525 33.1535 85.1162 34.43 87.1414C36.983 91.1302 42.7648 93.094 46.8947 91.3757C49.9733 90.087 52.6765 87.5096 53.1271 85.4231C53.8029 82.6002 52.3011 78.7341 50.0484 77.5681C48.9972 77.0158 48.1712 76.2794 48.1712 75.8498C48.1712 75.4816 50.0484 71.0018 52.3762 65.847L56.5811 56.5191L59.7348 56.826C63.8647 57.3169 69.1209 55.4759 72.575 52.4076L75.0529 50.1983L85.0397 53.819L94.9514 57.4397L95.1015 60.3239C95.7023 71.37 115 70.7563 115 59.6489C115 57.501 111.621 53.6963 108.918 52.7758C105.764 51.6711 100.958 52.3462 98.5556 54.2486C97.4293 55.1077 96.2279 55.8441 95.9275 55.8441C95.5521 55.8441 90.8966 54.2486 85.5653 52.3462L75.8038 48.9096L76.2543 46.3936C77.2305 41.2387 73.9266 36.1453 67.5441 32.8314C66.4928 32.2791 66.643 31.2359 69.4213 23.3809L72.575 14.544L75.0529 14.3599C86.166 13.378 85.1148 0 73.9266 0C71.0732 0 70.1722 0.306839 67.9946 2.08649Z" fill="#111F4D"/>
</g>
<path d="M52.674 17.85C43.9355 19.8536 35.7109 25.075 31.4518 31.2071C25.7975 39.2821 25.5037 49.9679 30.7175 58.4071C32.1127 60.7143 39.8966 68 40.9247 68C41.5856 68 45.3307 60.2893 45.3307 59.0143C45.3307 58.65 44.1558 57.0714 42.7605 55.5536C33.7282 45.7786 39.9701 31.5107 55.0239 27.4429L58.6955 26.4107L60.3845 21.675L62 17L58.9892 17.0607C57.3003 17.0607 54.5098 17.425 52.674 17.85Z" fill="#E43A19"/>
<path d="M76.6497 25.4632L75 30.2981L77.5821 32.7155C80.8814 35.7372 82.9614 39.7864 82.9614 43.1104V45.6487L88.6994 47.8243L94.3657 50L94.8677 47.22C95.5133 43.7752 93.7201 36.5229 91.1381 32.1111C89.2732 28.908 82.5311 22.5623 79.7338 21.2328C78.3711 20.6284 78.1559 20.9306 76.6497 25.4632Z" fill="#E43A19"/>
<path d="M74.4021 59.6313C71.0618 61.4439 68.1669 62.4106 64.3812 62.894C61.9317 63.2565 61.6347 63.4982 60.1502 67.0025C59.2594 69.1172 58.2944 71.2923 58.0718 71.836C56.9583 74.132 69.0576 72.8027 76.6289 69.8422C81.3053 67.9692 88.3571 63.4982 87.9859 62.5919C87.8375 62.2898 85.3879 61.1418 82.5672 60.0543L77.297 58L74.4021 59.6313Z" fill="#E43A19"/>
<path d="M245.79 21.8418C242.694 24.5591 240.452 30.1749 238.53 39.6854C235.113 56.0798 237.569 65.4998 244.402 62.4202C248.139 60.6992 249.741 51.8227 247.178 46.9316C246.644 45.8447 247.392 45.3918 250.488 44.6672C253.584 44.0331 254.652 43.3085 254.866 41.5875C255.186 39.8666 254.972 39.5949 253.798 40.4101C251.876 41.6781 247.712 42.4933 245.897 41.8593C244.509 41.4064 244.509 41.1347 245.897 39.8666C246.751 39.0514 248.887 35.8812 250.808 32.8016C255.079 25.6461 255.079 20.4832 250.808 20.0303C248.993 19.8492 247.285 20.4832 245.79 21.8418ZM250.808 24.8309C250.808 26.6424 244.402 37.421 243.655 36.787C243.014 36.153 246.431 26.0989 247.819 24.5591C249.314 23.0193 250.808 23.2005 250.808 24.8309ZM243.868 48.5619C244.723 52.4567 244.723 52.819 244.509 56.261C244.402 57.8913 243.762 58.7971 242.801 58.7971C241.519 58.7971 241.199 57.4385 241.199 52.0039C241.199 44.8483 242.801 42.8556 243.868 48.5619Z" fill="#111F4D"/>
<path d="M163.579 23.0996C159.114 24.4712 157.66 27.8544 161.918 26.8486C163.372 26.5743 164.618 26.5743 164.618 26.8486C164.618 27.2144 163.164 32.5178 161.398 38.7356C158.283 49.6168 158.075 50.074 155.167 50.6226C149.143 51.6284 152.155 53 160.464 53C168.461 53 171.473 51.8113 166.384 50.714L163.891 50.1654L167.214 38.0955C170.33 26.4828 170.538 26.0257 173.238 25.7513C176.665 25.3856 176.977 23.2825 173.757 22.4596C170.33 21.728 167.734 21.8195 163.579 23.0996Z" fill="#111F4D"/>
<path d="M181.514 23.0822C177.029 24.8421 175.107 26.9724 175 30.2142C175 33.456 176.281 33.5487 178.204 30.5847C180.873 26.2314 191.445 24.5642 196.891 27.6208C202.444 30.77 202.871 37.161 197.959 44.4782C195.182 48.5536 188.989 51.8881 185.999 50.9618C184.717 50.4987 184.504 49.3872 185.145 45.2192C185.572 42.3479 186.426 38.0872 187.174 35.679C187.921 33.3634 188.775 30.77 188.989 30.029C189.202 29.1954 188.562 28.547 187.174 28.3617C183.756 27.8986 181.194 34.197 180.553 44.4782C180.126 52.7217 180.126 52.9069 182.582 53.4627C191.018 55.4078 199.027 51.9807 203.191 44.6635C208.103 36.1421 206.395 27.065 199.454 23.9158C194.648 21.7855 185.892 21.3224 181.514 23.0822Z" fill="#111F4D"/>
<path d="M214.192 37.248C213.581 37.9838 212.563 40.5591 211.952 43.2264C210.832 47.2733 210.934 48.193 212.461 50.3085C213.988 52.4239 214.802 52.6998 217.449 52.2399L220.706 51.6881L215.922 56.0109C210.731 60.8856 209 63.4608 209 66.3121C209 68.7034 213.275 69.8071 216.736 68.3355C219.281 67.3238 224.269 59.23 224.269 56.0109C224.269 55.1831 224.575 54.4473 225.084 54.4473C225.491 54.4473 227.527 53.0677 229.664 51.4122C232.515 49.2048 233.431 48.0091 232.82 46.8134C232.209 45.3418 231.802 45.4338 228.748 48.1011C224.88 51.5041 224.778 51.1362 226.509 42.8585C227.119 39.6394 227.425 36.7882 227.119 36.5122C225.694 35.2246 223.149 37.524 222.233 41.019C220.605 46.9054 219.383 48.9288 217.551 48.9288C216.126 48.9288 215.922 48.285 216.431 44.514C216.838 42.1227 217.347 39.2715 217.754 38.0758C218.467 35.7764 216.126 35.2246 214.192 37.248ZM217.653 62.2652C216.533 64.2886 215.209 65.4843 213.886 65.4843C211.748 65.4843 211.952 64.9324 215.922 60.0578C219.078 56.2868 219.994 57.5745 217.653 62.2652Z" fill="#111F4D"/>
<path d="M260.946 37.9497C258.886 40.806 257.856 45.9657 258.783 49.0983C259.504 51.8625 263.727 53.2445 266.096 51.4939C269.7 48.8219 267.229 52.4153 262.903 56.1008C254.869 63.1032 253.633 69 260.328 69C264.345 69 268.361 65.1302 270.215 59.5099C271.348 56.1929 272.893 53.9816 275.88 51.7703C278.249 49.9276 280 47.8084 280 46.6106C280 44.86 279.691 44.9522 276.395 47.8084L272.79 50.9411V48.177C272.79 46.7028 273.305 43.7544 273.82 41.5431C275.983 33.3429 271.142 34.6328 268.67 42.833C267.538 46.7949 266.611 48.3612 265.169 48.5455C263.418 48.9141 263.212 48.4534 263.83 44.0308C264.139 41.2667 264.551 38.5026 264.757 37.7655C265.375 35.5542 262.697 35.6463 260.946 37.9497ZM264.963 61.3526C263.109 64.5774 259.401 66.6966 259.401 64.4853C259.401 63.2875 265.684 56.8379 266.302 57.3907C266.611 57.6671 265.993 59.4177 264.963 61.3526Z" fill="#111F4D"/>
<defs>
<filter id="filter0_dd_839_2196" x="0" y="0" width="119" height="100" filterUnits="userSpaceOnUse" color-interpolation-filters="sRGB">
<feFlood flood-opacity="0" result="BackgroundImageFix"/>
<feColorMatrix in="SourceAlpha" type="matrix" values="0 0 0 0 0 0 0 0 0 0 0 0 0 0 0 0 0 0 127 0" result="hardAlpha"/>
<feOffset dy="4"/>
<feGaussianBlur stdDeviation="2"/>
<feColorMatrix type="matrix" values="0 0 0 0 0 0 0 0 0 0 0 0 0 0 0 0 0 0 0.25 0"/>
<feBlend mode="normal" in2="BackgroundImageFix" result="effect1_dropShadow_839_2196"/>
<feColorMatrix in="SourceAlpha" type="matrix" values="0 0 0 0 0 0 0 0 0 0 0 0 0 0 0 0 0 0 127 0" result="hardAlpha"/>
<feOffset dy="4"/>
<feGaussianBlur stdDeviation="2"/>
<feColorMatrix type="matrix" values="0 0 0 0 0 0 0 0 0 0 0 0 0 0 0 0 0 0 0.25 0"/>
<feBlend mode="normal" in2="effect1_dropShadow_839_2196" result="effect2_dropShadow_839_2196"/>
<feBlend mode="normal" in="SourceGraphic" in2="effect2_dropShadow_839_2196" result="shape"/>
</filter>
<filter id="filter1_dd_839_2196" x="0" y="0" width="119" height="100" filterUnits="userSpaceOnUse" color-interpolation-filters="sRGB">
<feFlood flood-opacity="0" result="BackgroundImageFix"/>
<feColorMatrix in="SourceAlpha" type="matrix" values="0 0 0 0 0 0 0 0 0 0 0 0 0 0 0 0 0 0 127 0" result="hardAlpha"/>
<feOffset dy="4"/>
<feGaussianBlur stdDeviation="2"/>
<feColorMatrix type="matrix" values="0 0 0 0 0 0 0 0 0 0 0 0 0 0 0 0 0 0 0.25 0"/>
<feBlend mode="normal" in2="BackgroundImageFix" result="effect1_dropShadow_839_2196"/>
<feColorMatrix in="SourceAlpha" type="matrix" values="0 0 0 0 0 0 0 0 0 0 0 0 0 0 0 0 0 0 127 0" result="hardAlpha"/>
<feOffset dy="4"/>
<feGaussianBlur stdDeviation="2"/>
<feColorMatrix type="matrix" values="0 0 0 0 0 0 0 0 0 0 0 0 0 0 0 0 0 0 0.25 0"/>
<feBlend mode="normal" in2="effect1_dropShadow_839_2196" result="effect2_dropShadow_839_2196"/>
<feBlend mode="normal" in="SourceGraphic" in2="effect2_dropShadow_839_2196" result="shape"/>
</filter>
</defs>
</svg>
