<svg width="1477" height="574" viewBox="0 0 1477 574" fill="none" xmlns="http://www.w3.org/2000/svg">
<g clip-path="url(#clip0)">
<path d="M0.804688 0H1477V483.5L0 574L0.804688 0Z" fill="#4A219F"/>
<path d="M58.2119 115.5C58.2119 138.42 37.32 157 13.106 157C-11.108 157 -32 139.12 -32 115.5C-32 91.8797 -11.8054 74 13.106 74C38.0173 74 58.2119 92.5802 58.2119 115.5Z" fill="#8585A5" fill-opacity="0.46"/>
<ellipse cx="899.848" cy="231.5" rx="45.106" ry="41.5" fill="#8585A5" fill-opacity="0.46"/>
<ellipse cx="1374.49" cy="115.5" rx="45.106" ry="41.5" fill="#8585A5" fill-opacity="0.46"/>
<ellipse cx="1403.19" cy="427.5" rx="45.106" ry="41.5" fill="#8585A5" fill-opacity="0.46"/>
<ellipse cx="227.36" cy="307.5" rx="76.8852" ry="67.5" fill="#8585A5" fill-opacity="0.46"/>
<ellipse cx="58.2119" cy="252.5" rx="45.106" ry="41.5" fill="#8585A5" fill-opacity="0.46"/>
<ellipse cx="1347.83" cy="254.5" rx="45.106" ry="41.5" fill="#8585A5" fill-opacity="0.46"/>
<ellipse cx="1326.31" cy="281.5" rx="45.106" ry="41.5" fill="#8585A5" fill-opacity="0.46"/>
</g>
<defs>
<clipPath id="clip0">
<rect width="1477" height="574" fill="white"/>
</clipPath>
</defs>
</svg>
