<svg width="1440" height="265" viewBox="0 0 1440 265" fill="none" xmlns="http://www.w3.org/2000/svg">
<path d="M648.827 261.399C659.053 233.446 673.577 209.607 697.272 192.749C723.686 173.962 764.537 176.409 797.224 187.826C809.367 192.066 821.678 198.203 830.75 208.559C851.7 232.489 837.038 254.118 818.974 266.609C808.795 273.655 796.745 277.299 784.823 280.893C765.025 286.855 746.884 299.158 725.482 300.688C718.291 301.191 711.322 299.931 704.478 302.095C693.828 305.458 684.308 312.052 673.831 315.987C664.869 319.331 653.23 321.374 645.474 313.29C637.527 304.99 639.32 292.057 642.181 282.037C644.191 274.929 646.382 268.049 648.827 261.399Z" fill="url(#paint0_linear)"/>
<path d="M779.278 245.133C806.877 156.498 889.923 99.8619 968.171 107.266C1005.9 110.844 1041.05 130.996 1074.14 152.906C1103.31 172.216 1132.19 193.797 1155.36 222.813C1171.18 242.617 1184.78 267.924 1195.68 292.077C1211.98 328.246 1214.57 380.233 1172.02 388.814C1162.03 390.829 1152.69 389.099 1142.76 388.097C1134.72 387.28 1127.82 391.198 1119.82 391.992C1099.67 393.997 1079.24 390.935 1059.53 386.116C1019.35 376.275 980.779 358.221 940.094 351.199C906.756 345.464 872.807 347.398 840.078 356.897C826.27 360.906 811.995 366.304 798.137 362.546C763.979 353.265 767.608 300.238 773.317 269.337C774.821 261.111 776.813 253.022 779.278 245.133Z" fill="url(#paint1_linear)"/>
<path d="M1158.89 221.09C1184.83 126.12 1267.33 67.4096 1346.36 77.7728C1384.46 82.7778 1420.31 105.619 1454.13 130.298C1483.93 152.049 1513.5 176.247 1537.47 208.307C1553.83 230.19 1568.07 257.953 1579.56 284.388C1596.76 323.973 1600.47 380.242 1557.77 388.233C1547.75 390.109 1538.29 387.957 1528.26 386.575C1520.14 385.45 1513.27 389.477 1505.22 390.094C1484.96 391.653 1464.3 387.727 1444.33 381.924C1403.63 370.075 1364.37 349.399 1323.22 340.582C1289.49 333.378 1255.32 334.444 1222.53 343.724C1208.7 347.641 1194.43 353.045 1180.38 348.564C1145.76 337.503 1148.29 280.299 1153.39 247.071C1154.73 238.225 1156.57 229.542 1158.89 221.09Z" fill="url(#paint2_linear)"/>
<path d="M1070.27 238.817C1086.2 219.611 1103.97 204.445 1126.25 196.531C1151.08 187.712 1179.87 198.131 1200.02 213.692C1207.51 219.471 1214.54 226.735 1217.94 236.542C1225.78 259.201 1208.58 272.651 1191.71 278.409C1182.2 281.659 1172.38 281.92 1162.66 282.169C1146.52 282.578 1129.65 288.177 1113.71 284.866C1108.36 283.745 1103.7 281.324 1098.09 281.544C1089.37 281.883 1080.47 284.926 1071.7 285.738C1064.2 286.417 1055.16 285.541 1052.01 277.744C1048.8 269.742 1054.04 260.241 1059.17 253.187C1062.79 248.179 1066.48 243.384 1070.27 238.817Z" fill="url(#paint3_linear)"/>
<path d="M-117.968 278.721C-90.3679 190.086 -7.32236 133.45 70.9259 140.854C108.659 144.432 143.8 164.584 176.894 186.494C206.064 205.803 234.948 227.385 258.115 256.401C273.932 276.205 287.536 301.512 298.431 325.665C314.731 361.834 317.327 413.821 274.773 422.402C264.789 424.417 255.44 422.687 245.511 421.685C237.478 420.868 230.573 424.786 222.57 425.58C202.426 427.585 181.996 424.523 162.283 419.704C122.104 409.863 83.5332 391.809 42.8481 384.787C9.5103 379.052 -24.4385 380.986 -57.1678 390.485C-70.975 394.494 -85.2505 399.892 -99.1079 396.133C-133.266 386.852 -129.637 333.826 -123.929 302.925C-122.424 294.698 -120.432 286.61 -117.968 278.721V278.721Z" fill="url(#paint4_linear)"/>
<path d="M302.649 285.496C328.592 190.527 411.095 131.816 490.117 142.179C528.224 147.184 564.068 170.025 597.886 194.704C627.695 216.455 657.263 240.653 681.226 272.713C697.587 294.596 711.833 322.359 723.325 348.794C740.519 388.379 744.235 444.648 701.527 452.639C691.507 454.516 682.047 452.364 672.018 450.981C663.905 449.856 657.029 453.883 648.979 454.5C628.719 456.059 608.063 452.133 588.092 446.33C547.389 434.482 508.131 413.805 466.977 404.988C433.255 397.784 399.079 398.85 366.292 408.13C352.461 412.047 338.187 417.451 324.141 412.971C289.517 401.909 292.053 344.705 297.153 311.477C298.495 302.631 300.332 293.949 302.649 285.496Z" fill="url(#paint5_linear)"/>
<path d="M166.483 269.609C179.573 248.275 195.058 230.671 216.007 219.587C239.358 207.235 269.305 213.347 291.415 225.809C299.629 230.437 307.597 236.601 312.326 245.812C323.244 267.096 308.089 282.918 292.189 291.079C283.228 295.684 273.54 297.375 263.956 299.04C248.043 301.799 232.123 309.802 215.883 308.85C210.429 308.521 205.485 306.805 199.964 307.841C191.373 309.449 182.992 313.759 174.418 315.844C167.089 317.61 158.02 318.061 153.826 310.802C149.532 303.351 153.4 293.182 157.492 285.452C160.382 279.967 163.36 274.683 166.483 269.609Z" fill="url(#paint6_linear)"/>
<defs>
<linearGradient id="paint0_linear" x1="826.949" y1="246.999" x2="666.558" y2="140.682" gradientUnits="userSpaceOnUse">
<stop stop-color="#B287FF"/>
<stop offset="0.864583" stop-color="#111F4D"/>
</linearGradient>
<linearGradient id="paint1_linear" x1="1076.89" y1="322.999" x2="909.138" y2="11.948" gradientUnits="userSpaceOnUse">
<stop offset="0.193535" stop-color="#00255C"/>
<stop offset="0.734375" stop-color="#B287FF"/>
</linearGradient>
<linearGradient id="paint2_linear" x1="1578.15" y1="216.974" x2="1196.86" y2="103.361" gradientUnits="userSpaceOnUse">
<stop stop-color="#00255C"/>
<stop offset="1" stop-color="#B287FF"/>
</linearGradient>
<linearGradient id="paint3_linear" x1="1076.96" y1="228.262" x2="1209.77" y2="325.527" gradientUnits="userSpaceOnUse">
<stop offset="0.03125" stop-color="#B287FF"/>
<stop offset="1" stop-color="#00255C"/>
</linearGradient>
<linearGradient id="paint4_linear" x1="298.333" y1="263.297" x2="-68.1627" y2="139.597" gradientUnits="userSpaceOnUse">
<stop stop-color="#00255C"/>
<stop offset="1" stop-color="#B287FF"/>
</linearGradient>
<linearGradient id="paint5_linear" x1="721.908" y1="281.38" x2="340.625" y2="167.767" gradientUnits="userSpaceOnUse">
<stop stop-color="#B287FF"/>
<stop offset="1" stop-color="#00255C"/>
</linearGradient>
<linearGradient id="paint6_linear" x1="120.088" y1="168.999" x2="253.608" y2="395.207" gradientUnits="userSpaceOnUse">
<stop offset="0.0342757" stop-color="#111F4D"/>
<stop offset="1" stop-color="#B287FF"/>
</linearGradient>
</defs>
</svg>
