<svg width="98" height="95" viewBox="0 0 98 95" fill="none" xmlns="http://www.w3.org/2000/svg">
<ellipse cx="88.1562" cy="14.0625" rx="9.44196" ry="9.375" fill="#00DC72"/>
<ellipse cx="39.6607" cy="52.5" rx="22.6607" ry="22.5" fill="#00DC72"/>
<g filter="url(#filter0_bd)">
<ellipse cx="59.4286" cy="37.5" rx="38.5714" ry="37.5" fill="url(#paint0_linear)"/>
<path d="M97.5 37.5C97.5 57.9214 80.4682 74.5 59.4286 74.5C38.389 74.5 21.3572 57.9214 21.3572 37.5C21.3572 17.0786 38.389 0.5 59.4286 0.5C80.4682 0.5 97.5 17.0786 97.5 37.5Z" stroke="url(#paint1_linear)"/>
</g>
<g filter="url(#filter1_d)">
<path d="M59.4287 56.25C48.7772 56.25 40.1429 47.8556 40.1429 37.5C40.1429 27.1444 48.7772 18.75 59.4287 18.75C70.0802 18.75 78.7144 27.1444 78.7144 37.5C78.7144 47.8556 70.0802 56.25 59.4287 56.25ZM59.4287 52.5C63.5206 52.5 67.4449 50.9196 70.3383 48.1066C73.2317 45.2936 74.8572 41.4782 74.8572 37.5C74.8572 33.5218 73.2317 29.7064 70.3383 26.8934C67.4449 24.0804 63.5206 22.5 59.4287 22.5C55.3367 22.5 51.4124 24.0804 48.519 26.8934C45.6256 29.7064 44.0001 33.5218 44.0001 37.5C44.0001 41.4782 45.6256 45.2936 48.519 48.1066C51.4124 50.9196 55.3367 52.5 59.4287 52.5ZM57.5059 45L49.3229 37.0444L52.0499 34.3931L57.5059 39.6975L68.4139 29.0906L71.1428 31.7419L57.5059 45Z" fill="white"/>
</g>
<defs>
<filter id="filter0_bd" x="0.857178" y="-20" width="117.143" height="115" filterUnits="userSpaceOnUse" color-interpolation-filters="sRGB">
<feFlood flood-opacity="0" result="BackgroundImageFix"/>
<feGaussianBlur in="BackgroundImage" stdDeviation="10"/>
<feComposite in2="SourceAlpha" operator="in" result="effect1_backgroundBlur"/>
<feColorMatrix in="SourceAlpha" type="matrix" values="0 0 0 0 0 0 0 0 0 0 0 0 0 0 0 0 0 0 127 0" result="hardAlpha"/>
<feOffset dx="-10" dy="10"/>
<feGaussianBlur stdDeviation="5"/>
<feColorMatrix type="matrix" values="0 0 0 0 0 0 0 0 0 0 0 0 0 0 0 0 0 0 0.05 0"/>
<feBlend mode="normal" in2="effect1_backgroundBlur" result="effect2_dropShadow"/>
<feBlend mode="normal" in="SourceGraphic" in2="effect2_dropShadow" result="shape"/>
</filter>
<filter id="filter1_d" x="26.2858" y="10" width="66.2857" height="65" filterUnits="userSpaceOnUse" color-interpolation-filters="sRGB">
<feFlood flood-opacity="0" result="BackgroundImageFix"/>
<feColorMatrix in="SourceAlpha" type="matrix" values="0 0 0 0 0 0 0 0 0 0 0 0 0 0 0 0 0 0 127 0" result="hardAlpha"/>
<feOffset dy="5"/>
<feGaussianBlur stdDeviation="5"/>
<feColorMatrix type="matrix" values="0 0 0 0 0 0 0 0 0 0 0 0 0 0 0 0 0 0 0.25 0"/>
<feBlend mode="normal" in2="BackgroundImageFix" result="effect1_dropShadow"/>
<feBlend mode="normal" in="SourceGraphic" in2="effect1_dropShadow" result="shape"/>
</filter>
<linearGradient id="paint0_linear" x1="37.25" y1="62.3437" x2="86.9445" y2="12.1939" gradientUnits="userSpaceOnUse">
<stop stop-color="#00DC72" stop-opacity="0.5"/>
<stop offset="1" stop-color="white" stop-opacity="0.25"/>
</linearGradient>
<linearGradient id="paint1_linear" x1="34.3572" y1="62.8125" x2="86.9602" y2="13.0544" gradientUnits="userSpaceOnUse">
<stop stop-color="white" stop-opacity="0.25"/>
<stop offset="1" stop-color="white" stop-opacity="0.05"/>
</linearGradient>
</defs>
</svg>
