<svg width="24" height="24" viewBox="0 0 24 24" fill="none" xmlns="http://www.w3.org/2000/svg">
<path opacity="0.1" fill-rule="evenodd" clip-rule="evenodd" d="M0 12C0 5.37258 5.37258 0 12 0C18.6274 0 24 5.37258 24 12C24 18.6274 18.6274 24 12 24C5.37258 24 0 18.6274 0 12Z" fill="white"/>
<path fill-rule="evenodd" clip-rule="evenodd" d="M17.0008 7.87427C17.5516 8.02541 17.9853 8.47072 18.1325 9.03622C18.4 10.0611 18.4 12.1996 18.4 12.1996C18.4 12.1996 18.4 14.338 18.1325 15.363C17.9853 15.9285 17.5516 16.3738 17.0008 16.525C16.0027 16.7996 12 16.7996 12 16.7996C12 16.7996 7.99732 16.7996 6.99913 16.525C6.44837 16.3738 6.01462 15.9285 5.86742 15.363C5.60001 14.338 5.60001 12.1996 5.60001 12.1996C5.60001 12.1996 5.60001 10.0611 5.86742 9.03622C6.01462 8.47072 6.44837 8.02541 6.99913 7.87427C7.99732 7.59961 12 7.59961 12 7.59961C12 7.59961 16.0027 7.59961 17.0008 7.87427ZM10.8 10.3996V14.3996L14 12.3996L10.8 10.3996Z" fill="#F2F4F7"/>
</svg>
